<svg width="24" height="23" viewBox="0 0 24 23" fill="none" xmlns="http://www.w3.org/2000/svg">
<g clip-path="url(#clip0_306_2787)">
<path d="M0.136719 4.38636C0.136719 3.75346 0.388139 3.14648 0.835669 2.69895C1.2832 2.25142 1.89018 2 2.52308 2H11.2731H20.0231C20.656 2 21.263 2.25142 21.7105 2.69895C22.158 3.14648 22.4094 3.75346 22.4094 4.38636V5.97727C22.4097 6.47097 22.2568 6.9526 21.9719 7.35578C21.687 7.75896 21.284 8.06384 20.8185 8.22841V9.31818C20.3101 9.05802 19.7772 8.8486 19.2276 8.69295V8.36364H3.31854V17.1136C3.31854 17.7465 3.56996 18.3535 4.01749 18.8011C4.46502 19.2486 5.072 19.5 5.7049 19.5H8.42058C8.57808 20.0552 8.78649 20.5866 9.04581 21.0909H5.7049C4.65006 21.0909 3.63843 20.6719 2.89254 19.926C2.14666 19.1801 1.72763 18.1685 1.72763 17.1136V8.22841C1.26216 8.06384 0.859196 7.75896 0.574264 7.35578C0.289331 6.9526 0.13646 6.47097 0.136719 5.97727V4.38636ZM2.52308 3.59091C2.31211 3.59091 2.10979 3.67472 1.96061 3.82389C1.81143 3.97307 1.72763 4.1754 1.72763 4.38636V5.97727C1.72763 6.18824 1.81143 6.39057 1.96061 6.53974C2.10979 6.68892 2.31211 6.77273 2.52308 6.77273H20.0231C20.234 6.77273 20.4364 6.68892 20.5856 6.53974C20.7347 6.39057 20.8185 6.18824 20.8185 5.97727V4.38636C20.8185 4.1754 20.7347 3.97307 20.5856 3.82389C20.4364 3.67472 20.234 3.59091 20.0231 3.59091H2.52308ZM16.8413 24.2727C18.74 24.2727 20.5609 23.5185 21.9035 22.1759C23.2461 20.8333 24.0004 19.0123 24.0004 17.1136C24.0004 15.2149 23.2461 13.394 21.9035 12.0514C20.5609 10.7088 18.74 9.95455 16.8413 9.95455C14.9426 9.95455 13.1216 10.7088 11.779 12.0514C10.4364 13.394 9.68217 15.2149 9.68217 17.1136C9.68217 19.0123 10.4364 20.8333 11.779 22.1759C13.1216 23.5185 14.9426 24.2727 16.8413 24.2727ZM15.4158 14.0973L13.9888 15.5227H16.4435C17.6039 15.5227 18.7167 15.9837 19.5371 16.8041C20.3576 17.6246 20.8185 18.7374 20.8185 19.8977V20.2955C20.8185 20.5064 20.7347 20.7087 20.5856 20.8579C20.4364 21.0071 20.234 21.0909 20.0231 21.0909C19.8121 21.0909 19.6098 21.0071 19.4606 20.8579C19.3114 20.7087 19.2276 20.5064 19.2276 20.2955V19.8977C19.2276 19.1593 18.9343 18.4512 18.4122 17.9291C17.8901 17.407 17.1819 17.1136 16.4435 17.1136H13.9888L15.4158 18.5391C15.5652 18.6885 15.6491 18.891 15.6491 19.1023C15.6491 19.3135 15.5652 19.5161 15.4158 19.6655C15.2664 19.8148 15.0639 19.8987 14.8526 19.8987C14.6414 19.8987 14.4388 19.8148 14.2894 19.6655L11.5022 16.875C11.4286 16.8012 11.3704 16.7136 11.3307 16.6173C11.2911 16.5209 11.2708 16.4177 11.2711 16.3135C11.2714 16.2094 11.2923 16.1063 11.3325 16.0101C11.3727 15.914 11.4314 15.8268 11.5054 15.7534L14.2894 12.9693C14.4388 12.82 14.6414 12.736 14.8526 12.736C15.0639 12.736 15.2664 12.82 15.4158 12.9693C15.5652 13.1187 15.6491 13.3213 15.6491 13.5325C15.6491 13.7437 15.5652 13.9463 15.4158 14.0957V14.0973Z" fill="#66323C"/>
</g>
<defs>
<clipPath id="clip0_306_2787">
<rect width="24" height="22.5455" fill="white"/>
</clipPath>
</defs>
</svg>
