<svg width="26" height="25" viewBox="0 0 26 25" fill="none" xmlns="http://www.w3.org/2000/svg">
<path d="M13.0624 23.6619C7.05973 23.6619 2.18066 18.7828 2.18066 12.7802C2.18066 6.77751 7.05973 1.89844 13.0624 1.89844C13.4774 1.89844 13.8216 2.2426 13.8216 2.65763C13.8216 3.07265 13.4774 3.41682 13.0624 3.41682C7.8999 3.41682 3.69905 7.61768 3.69905 12.7802C3.69905 17.9427 7.8999 22.1435 13.0624 22.1435C18.2249 22.1435 22.4258 17.9427 22.4258 12.7802C22.4258 12.3652 22.7699 12.021 23.185 12.021C23.6 12.021 23.9441 12.3652 23.9441 12.7802C23.9441 18.7828 19.0651 23.6619 13.0624 23.6619Z" fill="white"/>
<path d="M19.5488 2.08289V9.61189" stroke="white" stroke-width="1.84375" stroke-linecap="round"/>
<path d="M23.2979 5.84802L15.7689 5.84802" stroke="white" stroke-width="1.84375" stroke-linecap="round"/>
<path d="M10.3356 13.8592C10.5525 13.8731 10.7762 13.88 11.0068 13.88C11.2421 13.88 11.4705 13.8639 11.6919 13.8316C11.9179 13.7947 12.1325 13.737 12.3354 13.6586C12.5384 13.5801 12.7206 13.4717 12.8821 13.3333C13.0435 13.1949 13.175 13.022 13.2765 12.8144C13.3826 12.6022 13.4495 12.3484 13.4772 12.0532H10.0381C10.0519 12.0209 10.0888 11.954 10.1488 11.8525C10.2134 11.7464 10.2803 11.6357 10.3495 11.5204C10.4325 11.3866 10.5248 11.2413 10.6263 11.0844H13.3042C13.3042 10.9645 13.2465 10.8446 13.1312 10.7246C13.0159 10.6001 12.8752 10.4893 12.7091 10.3925C12.5476 10.2956 12.3816 10.2172 12.2109 10.1572C12.0402 10.0926 11.8995 10.0603 11.7888 10.0603H10.0381C10.0565 10.005 10.0958 9.92193 10.1557 9.81121C10.2203 9.70049 10.2872 9.59209 10.3564 9.48598C10.4256 9.37527 10.4856 9.27839 10.5363 9.19536C10.5917 9.11232 10.6216 9.0708 10.6263 9.0708H16.3904C16.3904 9.0708 16.3765 9.09617 16.3489 9.14692C16.3258 9.19766 16.2935 9.25994 16.252 9.33375C16.2105 9.40295 16.1643 9.48137 16.1136 9.56902C16.0628 9.65206 16.0144 9.73048 15.9683 9.80429C15.9268 9.8781 15.8899 9.94038 15.8576 9.99112C15.8299 10.0373 15.816 10.0603 15.816 10.0603H14.3006C14.3975 10.2264 14.4805 10.3948 14.5497 10.5655C14.6235 10.7315 14.6697 10.9045 14.6881 11.0844H16.3904L15.816 12.0532H14.7504C14.6951 12.4822 14.5728 12.849 14.3837 13.1534C14.1991 13.4579 13.9708 13.7116 13.6986 13.9146C13.4311 14.113 13.1312 14.2675 12.7991 14.3782C12.4669 14.4843 12.1255 14.5581 11.7749 14.5997C11.7749 14.6043 11.7819 14.6204 11.7957 14.6481C11.8141 14.6712 11.8349 14.6988 11.858 14.7311C11.881 14.768 11.9087 14.8072 11.941 14.8488L15.0134 19.0905V19.2635H13.6986L10.3356 14.7726V13.8592Z" fill="white"/>
</svg>
