<svg width="69" height="97" viewBox="0 0 69 97" fill="none" xmlns="http://www.w3.org/2000/svg">
<path opacity="0.988" fill-rule="evenodd" clip-rule="evenodd" d="M30.9589 0C33.3445 0 35.7299 0 38.1155 0C49.6393 1.61112 58.3967 7.42101 64.3877 17.4297C69.9857 28.2351 70.488 39.2865 65.8944 50.584C63.6261 55.5922 60.9265 60.3285 57.7961 64.793C52.9622 71.2975 48.1285 77.8021 43.2946 84.3066C40.4984 88.4161 37.8932 92.6471 35.4788 97C34.9138 97 34.3488 97 33.7838 97C33.5601 96.8363 33.3403 96.6469 33.1247 96.4316C30.5835 91.5691 27.7585 86.8959 24.6497 82.4121C20.3181 76.476 15.9865 70.5396 11.6549 64.6035C7.67373 59.1217 4.47203 53.1854 2.04996 46.7949C-1.96533 34.4024 -0.0820114 23.0352 7.69991 12.6934C13.8293 5.45807 21.5824 1.22696 30.9589 0ZM32.2772 16.6719C41.0911 16.1699 47.4002 19.8958 51.2045 27.8496C53.9185 35.9061 52.1921 42.8211 46.0254 48.5947C40.3199 52.9927 34.1049 53.8769 27.3806 51.2471C18.6774 46.6502 15.3189 39.4826 17.3048 29.7441C19.713 22.3644 24.7038 18.0069 32.2772 16.6719Z" fill="url(#paint0_linear_181_19309)"/>
<defs>
<linearGradient id="paint0_linear_181_19309" x1="34.5" y1="0" x2="34.5" y2="97" gradientUnits="userSpaceOnUse">
<stop stop-color="#CD5268"/>
<stop offset="1" stop-color="#D88694"/>
</linearGradient>
</defs>
</svg>
