<svg width="25" height="25" viewBox="0 0 25 25" fill="none" xmlns="http://www.w3.org/2000/svg">
<path opacity="0.976" fill-rule="evenodd" clip-rule="evenodd" d="M11.3281 0C12.1094 0 12.8906 0 13.6719 0C13.6719 0.78125 13.6719 1.5625 13.6719 2.34375C17.311 2.84832 19.9884 4.72006 21.7041 7.95898C22.2249 9.0248 22.5422 10.1479 22.6562 11.3281C23.4375 11.3281 24.2188 11.3281 25 11.3281C25 12.1094 25 12.8906 25 13.6719C24.2188 13.6719 23.4375 13.6719 22.6562 13.6719C22.1517 17.311 20.2799 19.9884 17.041 21.7041C15.9752 22.2249 14.8521 22.5422 13.6719 22.6562C13.6719 23.4375 13.6719 24.2188 13.6719 25C12.8906 25 12.1094 25 11.3281 25C11.3281 24.2188 11.3281 23.4375 11.3281 22.6562C7.68901 22.1517 5.01162 20.2799 3.2959 17.041C2.77514 15.9752 2.45775 14.8521 2.34375 13.6719C1.5625 13.6719 0.78125 13.6719 0 13.6719C0 12.8906 0 12.1094 0 11.3281C0.78125 11.3281 1.5625 11.3281 2.34375 11.3281C2.84832 7.68901 4.72006 5.01162 7.95898 3.2959C9.0248 2.77514 10.1479 2.45775 11.3281 2.34375C11.3281 1.5625 11.3281 0.78125 11.3281 0ZM11.6699 4.58984C15.099 4.41194 17.695 5.77915 19.458 8.69141C20.7275 11.2305 20.7275 13.7695 19.458 16.3086C17.6962 19.2283 15.1002 20.5874 11.6699 20.3857C8.29419 19.8743 6.03994 18.0106 4.90723 14.7949C4.06131 11.4578 4.91582 8.6502 7.4707 6.37207C8.70542 5.38848 10.1052 4.79441 11.6699 4.58984Z" fill="#BB6979"/>
<path opacity="0.988" fill-rule="evenodd" clip-rule="evenodd" d="M12.4018 8C14.7553 8.12487 16.2597 9.30911 16.9152 11.5527C17.2424 13.4895 16.6229 15.0498 15.0567 16.2335C13.4574 17.205 11.8323 17.253 10.1813 16.3776C8.44606 15.2218 7.74612 13.6135 8.08147 11.5527C8.55612 9.73634 9.70663 8.59209 11.5329 8.12002C11.8296 8.07979 12.1192 8.0398 12.4018 8Z" fill="#BB6979"/>
</svg>
