<svg width="24" height="24" viewBox="0 0 24 24" fill="none" xmlns="http://www.w3.org/2000/svg">
<path d="M8.5 15.5L15.5 8.5" stroke="#BB6878" stroke-width="2" stroke-linecap="round" stroke-linejoin="round"/>
<path d="M9.08333 9.66667C9.4055 9.66667 9.66667 9.4055 9.66667 9.08333C9.66667 8.76117 9.4055 8.5 9.08333 8.5C8.76117 8.5 8.5 8.76117 8.5 9.08333C8.5 9.4055 8.76117 9.66667 9.08333 9.66667Z" stroke="#BB6878" stroke-width="2" stroke-linecap="round" stroke-linejoin="round"/>
<path d="M14.9132 15.5007C15.2353 15.5007 15.4965 15.2395 15.4965 14.9173C15.4965 14.5952 15.2353 14.334 14.9132 14.334C14.591 14.334 14.3298 14.5952 14.3298 14.9173C14.3298 15.2395 14.591 15.5007 14.9132 15.5007Z" stroke="#BB6878" stroke-width="2" stroke-linecap="round" stroke-linejoin="round"/>
<path d="M3.83119 6.40054C3.83119 5.71982 4.1016 5.06697 4.58295 4.58563C5.06429 4.10429 5.71713 3.83387 6.39785 3.83387H7.56452C8.24223 3.83348 8.89229 3.56507 9.37285 3.0872L10.1895 2.27054C10.428 2.03067 10.7116 1.84032 11.024 1.71043C11.3363 1.58054 11.6712 1.51367 12.0095 1.51367C12.3478 1.51367 12.6827 1.58054 12.9951 1.71043C13.3074 1.84032 13.591 2.03067 13.8295 2.27054L14.6462 3.0872C15.1267 3.56507 15.7768 3.83348 16.4545 3.83387H17.6212C18.3019 3.83387 18.9547 4.10429 19.4361 4.58563C19.9174 5.06697 20.1879 5.71982 20.1879 6.40054V7.5672C20.1882 8.24492 20.4567 8.89498 20.9345 9.37554L21.7512 10.1922C21.9911 10.4307 22.1814 10.7143 22.3113 11.0267C22.4412 11.339 22.5081 11.6739 22.5081 12.0122C22.5081 12.3505 22.4412 12.6854 22.3113 12.9978C22.1814 13.3101 21.9911 13.5937 21.7512 13.8322L20.9345 14.6489C20.4567 15.1294 20.1882 15.7795 20.1879 16.4572V17.6239C20.1879 18.3046 19.9174 18.9574 19.4361 19.4388C18.9547 19.9201 18.3019 20.1905 17.6212 20.1905H16.4545C15.7768 20.1909 15.1267 20.4593 14.6462 20.9372L13.8295 21.7539C13.591 21.9937 13.3074 22.1841 12.9951 22.314C12.6827 22.4439 12.3478 22.5107 12.0095 22.5107C11.6712 22.5107 11.3363 22.4439 11.024 22.314C10.7116 22.1841 10.428 21.9937 10.1895 21.7539L9.37285 20.9372C8.89229 20.4593 8.24223 20.1909 7.56452 20.1905H6.39785C5.71713 20.1905 5.06429 19.9201 4.58295 19.4388C4.1016 18.9574 3.83119 18.3046 3.83119 17.6239V16.4572C3.8308 15.7795 3.56239 15.1294 3.08452 14.6489L2.26785 13.8322C2.02799 13.5937 1.83763 13.3101 1.70774 12.9978C1.57785 12.6854 1.51099 12.3505 1.51099 12.0122C1.51099 11.6739 1.57785 11.339 1.70774 11.0267C1.83763 10.7143 2.02799 10.4307 2.26785 10.1922L3.08452 9.37554C3.56239 8.89498 3.8308 8.24492 3.83119 7.5672V6.40054Z" stroke="#BB6878" stroke-width="2" stroke-linecap="round" stroke-linejoin="round"/>
</svg>
