<svg width="131" height="104" viewBox="0 0 131 104" fill="none" xmlns="http://www.w3.org/2000/svg">
<path d="M22.925 0C17.4987 0 13.1 4.36516 13.1 9.75V19.5H3.275C1.46618 19.5 0 20.9625 0 22.75C0 24.5375 1.46618 26 3.275 26H55.675C57.4763 26 58.95 27.4625 58.95 29.25C58.95 31.0375 57.4763 32.5 55.675 32.5H9.825C8.01556 32.5 6.55 33.9625 6.55 35.75C6.55 37.5375 8.01556 39 9.825 39H49.125C50.9263 39 52.4 40.4625 52.4 42.25C52.4 44.0375 50.9263 45.5 49.125 45.5H3.275C1.46618 45.5 0 46.9625 0 48.75C0 50.5375 1.46618 52 3.275 52H42.575C44.3763 52 45.85 53.4625 45.85 55.25C45.85 57.0375 44.3763 58.5 42.575 58.5H13.1V84.5C13.1 95.2656 21.7173 104 32.75 104C43.5984 104 52.4 95.2656 52.4 84.5H78.6C78.6 95.2656 87.2173 104 98.25 104C109.098 104 117.9 95.2656 117.9 84.5H124.45C128.073 84.5 131 81.5953 131 78C131 74.4047 128.073 71.5 124.45 71.5V48.2016C124.45 44.7484 123.079 41.4375 120.622 39L104.8 23.2984C102.16 20.8609 99.0073 19.5 95.5277 19.5H85.15V9.75C85.15 4.36516 80.7492 0 75.325 0H22.925ZM111.35 48.2016V52H85.15V32.5H95.5277L111.35 48.2016ZM32.75 94.25C27.3258 94.25 22.925 89.8828 22.925 84.5C22.925 79.1172 27.3258 74.75 32.75 74.75C38.1742 74.75 42.575 79.1172 42.575 84.5C42.575 89.8828 38.1742 94.25 32.75 94.25ZM108.075 84.5C108.075 89.8828 103.674 94.25 98.25 94.25C92.8258 94.25 88.425 89.8828 88.425 84.5C88.425 79.1172 92.8258 74.75 98.25 74.75C103.674 74.75 108.075 79.1172 108.075 84.5Z" fill="#A9A9A9"/>
</svg>
