<svg width="32" height="32" viewBox="0 0 32 32" fill="none" xmlns="http://www.w3.org/2000/svg">
<path d="M17.3333 15.8667H9.33325C8.78659 15.8667 8.33325 15.4134 8.33325 14.8667C8.33325 14.32 8.78659 13.8667 9.33325 13.8667H17.3333C17.8799 13.8667 18.3333 14.32 18.3333 14.8667C18.3333 15.4134 17.8799 15.8667 17.3333 15.8667Z" fill="white"/>
<path d="M2.66675 15.8669C2.12008 15.8669 1.66675 15.4135 1.66675 14.8669V8.70687C1.66675 5.4402 4.32008 2.78687 7.58675 2.78687H15.0801C18.5067 2.78687 21.0001 5.06686 21.0001 8.20019C21.0001 8.74686 20.5467 9.20019 20.0001 9.20019C19.4534 9.20019 19.0001 8.74686 19.0001 8.20019C19.0001 5.85353 16.9601 4.78687 15.0801 4.78687H7.58675C5.42675 4.78687 3.66675 6.54687 3.66675 8.70687V14.8669C3.66675 15.4269 3.21341 15.8669 2.66675 15.8669Z" fill="white"/>
<path d="M21.3334 29.2H8.00008C4.50675 29.2 1.66675 26.36 1.66675 22.8666V13.5333C1.66675 10.04 4.50675 7.19995 8.00008 7.19995H21.3334C24.8267 7.19995 27.6667 10.04 27.6667 13.5333V15.4666C27.6667 16.0132 27.2134 16.4666 26.6667 16.4666H25.2267C24.7601 16.4666 24.3334 16.6399 24.0268 16.9599L24.0134 16.9732C23.5734 17.4132 23.4001 18.0265 23.5601 18.6265C23.7601 19.3732 24.5468 19.9199 25.4268 19.9199H26.6667C27.2134 19.9199 27.6667 20.3733 27.6667 20.9199V22.8533C27.6667 26.3599 24.8267 29.2 21.3334 29.2ZM8.00008 9.19995C5.61341 9.19995 3.66675 11.1466 3.66675 13.5333V22.8666C3.66675 25.2533 5.61341 27.2 8.00008 27.2H21.3334C23.7201 27.2 25.6667 25.2533 25.6667 22.8666V21.9333H25.4268C23.6268 21.9333 22.0667 20.7999 21.6267 19.1599C21.28 17.8666 21.6534 16.4932 22.6001 15.5599C23.2934 14.8532 24.2267 14.4666 25.2267 14.4666H25.6667V13.5333C25.6667 11.1466 23.7201 9.19995 21.3334 9.19995H8.00008V9.19995Z" fill="white"/>
<path d="M27.9598 21.9333H25.3864C23.3731 21.9333 21.6665 20.4399 21.5065 18.5199C21.3998 17.4133 21.7998 16.3332 22.5998 15.5465C23.2665 14.8532 24.2131 14.4666 25.2131 14.4666H27.9465C29.2532 14.4666 30.3198 15.5199 30.3198 16.8266V19.5732C30.3331 20.8799 29.2664 21.9333 27.9598 21.9333ZM25.2264 16.4666C24.7598 16.4666 24.3332 16.6399 24.0265 16.9599C23.6398 17.3332 23.4531 17.8399 23.5065 18.3466C23.5731 19.2266 24.4264 19.9333 25.3864 19.9333H27.9598C28.1598 19.9333 28.3331 19.7732 28.3331 19.5732V16.8266C28.3331 16.6266 28.1598 16.4666 27.9598 16.4666H25.2264V16.4666Z" fill="white"/>
</svg>
