<svg width="50" height="50" viewBox="0 0 50 50" fill="none" xmlns="http://www.w3.org/2000/svg">
<path d="M25 0C11.1942 0 0 11.1942 0 25C0 38.8058 11.1942 50 25 50C38.8058 50 50 38.8058 50 25C50 11.1942 38.8058 0 25 0ZM27.0368 31.183C24.5871 34.6317 19.6652 35.6362 15.8259 34.1574C11.9754 32.6897 9.24107 28.6217 9.57031 24.4754C9.65402 19.4029 14.3248 14.9554 19.3973 15.1283C21.8304 15.0167 24.1183 16.0714 25.9821 17.5614C25.1842 18.4654 24.3638 19.3359 23.4821 20.1451C21.2444 18.5993 18.058 18.1585 15.8203 19.9442C12.6172 22.1596 12.4721 27.3884 15.5525 29.7712C18.5491 32.4888 24.2132 31.1384 25.0446 26.9754C23.1696 26.9475 21.2835 26.9754 19.4085 26.9141C19.4029 25.7924 19.3973 24.6763 19.4029 23.5547C22.5391 23.5435 25.6808 23.5379 28.8225 23.5658C29.0067 26.2054 28.6551 29.0067 27.0368 31.183ZM40.5692 26.3672C39.6317 26.3783 38.6942 26.3839 37.7567 26.3895C37.7455 27.327 37.74 28.2645 37.74 29.202H34.933C34.9219 28.2645 34.9219 27.3326 34.9163 26.3951C33.9788 26.3839 33.0413 26.3783 32.1038 26.3672V23.5714C33.0413 23.5603 33.9788 23.5547 34.9163 23.5547C34.9219 22.6172 34.933 21.6797 34.9386 20.7422H37.74L37.7567 23.5547C38.6942 23.5658 39.6317 23.5658 40.5692 23.5714V26.3672Z" fill="white"/>
</svg>
