<svg width="18" height="13" viewBox="0 0 18 13" fill="none" xmlns="http://www.w3.org/2000/svg">
<path d="M14.4946 4.70366C12.3091 1.80696 9.24947 0.720703 9.24947 0.720703C9.24947 0.720703 6.18984 1.80696 4.00438 4.70366C1.81893 7.60036 1.38184 10.8591 1.38184 10.8591C1.38184 10.8591 4.87856 12.3075 9.24947 12.3075C13.6204 12.3075 17.1171 10.8591 17.1171 10.8591C17.1171 10.8591 16.68 7.60036 14.4946 4.70366Z" stroke="black" stroke-linecap="round" stroke-linejoin="round"/>
<path d="M1.38184 10.8591L4.87856 9.41079M13.6204 9.41079L17.1171 10.8591M9.24947 3.6174V0.720703M12.1634 5.85785C10.9492 4.22842 9.24947 3.6174 9.24947 3.6174C9.24947 3.6174 7.54971 4.22842 6.33554 5.85785C5.12139 7.48724 4.87856 9.32027 4.87856 9.32027C4.87856 9.32027 6.82119 10.135 9.24947 10.135C11.6778 10.135 13.6204 9.32027 13.6204 9.32027C13.6204 9.32027 13.3775 7.48724 12.1634 5.85785Z" stroke="black" stroke-linecap="round" stroke-linejoin="round"/>
</svg>
