<svg width="25" height="16" viewBox="0 0 25 16" fill="none" xmlns="http://www.w3.org/2000/svg">
<path d="M0.0476417 5.35529C0.0535969 5.37412 0.0714627 5.38353 0.0833731 5.40235C0.107194 5.43529 0.12506 5.46824 0.154836 5.49647L12.0653 15.8494C12.0712 15.8588 12.0891 15.8588 12.095 15.8682C12.1367 15.9012 12.1844 15.9247 12.232 15.9482C12.2499 15.9576 12.2677 15.9624 12.2856 15.9718C12.3571 15.9859 12.4285 16 12.506 16C12.5834 16 12.6548 15.9859 12.7203 15.9624C12.7382 15.9576 12.7561 15.9482 12.7739 15.9388C12.8275 15.92 12.8692 15.8918 12.9109 15.8588C12.9228 15.8494 12.9347 15.8494 12.9407 15.84L24.8511 5.48706C24.8809 5.45882 24.9047 5.42588 24.9226 5.39294C24.9345 5.37882 24.9524 5.36471 24.9583 5.34588C24.9881 5.28941 25 5.23294 25 5.17647C25 5.17176 25 5.17176 25 5.17176C25 5.15765 24.994 5.14353 24.9881 5.12941C24.9821 5.08706 24.9762 5.04471 24.9583 5.00706C24.9464 4.98353 24.9285 4.96471 24.9107 4.94118C24.8928 4.92235 24.8869 4.89882 24.869 4.87529L20.1048 0.169412C20.0989 0.164706 20.0869 0.16 20.081 0.155294C20.0453 0.122353 19.9976 0.0988235 19.95 0.075294C19.9262 0.0611764 19.9023 0.0470588 19.8785 0.037647C19.8726 0.0329411 19.8666 0.0282353 19.8606 0.0282353C19.8011 0.00941174 19.7475 0.00470599 19.6879 0.00470599C19.682 0.00941187 19.6701 0 19.6522 0H5.3597C5.34183 0 5.32396 0.00941176 5.3061 0.00941176C5.2525 0.0141176 5.19295 0.0141177 5.13935 0.0329413C5.1334 0.0329413 5.12744 0.042353 5.12149 0.042353C5.09171 0.0517648 5.07384 0.0658824 5.05002 0.08C5.00238 0.103529 4.95474 0.127059 4.91901 0.16C4.91305 0.164706 4.90114 0.169412 4.89519 0.174118L0.131015 4.88C0.113149 4.89882 0.101239 4.92235 0.0893283 4.94588C0.0714627 4.96941 0.0535969 4.98823 0.0416865 5.01176C0.0238208 5.05412 0.0119104 5.09176 0.0119104 5.13412C0.00595521 5.14824 0 5.16235 0 5.17647C0 5.18118 0 5.18118 0 5.18118C0 5.24235 0.0178656 5.29882 0.0476417 5.35529ZM1.9414 5.64706H7.32492L10.9159 13.4447L1.9414 5.64706ZM12.506 14.1506L8.59338 5.64706H16.4185L12.506 14.1506ZM14.096 13.4447L17.687 5.64706H23.0705L14.096 13.4447ZM19.8249 1.39294L23.1777 4.70588H18.1515L19.8249 1.39294ZM18.7708 0.941176L17.0974 4.25412L13.7446 0.941176H18.7708ZM16.0314 4.70588H8.98047L12.506 1.22353L16.0314 4.70588ZM11.2673 0.941176L7.91448 4.25412L6.24107 0.941176H11.2673ZM5.18699 1.39294L6.86041 4.70588H1.83421L5.18699 1.39294Z" fill="black"/>
</svg>
