<svg width="46" height="40" viewBox="0 0 46 40" fill="none" xmlns="http://www.w3.org/2000/svg">
<path d="M45.3232 8.88986C44.9128 8.2246 44.325 7.6702 43.6173 7.28075C42.9095 6.8913 42.106 6.68009 41.285 6.66772H10.8795L9.50172 1.64569C9.36252 1.1609 9.05196 0.734485 8.62062 0.435891C8.18928 0.137298 7.66258 -0.0158811 7.12629 0.00130324H2.37543C1.74543 0.00130324 1.14123 0.235421 0.695747 0.652153C0.250268 1.06888 0 1.6341 0 2.22344C0 2.81279 0.250268 3.378 0.695747 3.79473C1.14123 4.21147 1.74543 4.44558 2.37543 4.44558H5.32096L11.8772 27.2447C12.0164 27.7295 12.3269 28.1559 12.7583 28.4545C13.1896 28.7531 13.7163 28.9063 14.2526 28.8891H35.6315C36.0701 28.8879 36.4999 28.773 36.873 28.5573C37.2462 28.3416 37.5482 28.0334 37.7456 27.6669L45.537 13.0897C45.8747 12.4275 46.0319 11.6975 45.9946 10.9646C45.9573 10.2318 45.7267 9.51901 45.3232 8.88986ZM34.1587 24.4448H16.0579L12.186 11.112H41.285L34.1587 24.4448Z" fill="#E88F9F"/>
<path d="M13.0651 39.9999C15.033 39.9999 16.6282 38.5076 16.6282 36.6667C16.6282 34.8258 15.033 33.3335 13.0651 33.3335C11.0972 33.3335 9.50195 34.8258 9.50195 36.6667C9.50195 38.5076 11.0972 39.9999 13.0651 39.9999Z" fill="#E88F9F"/>
<path d="M36.8195 39.9999C38.7874 39.9999 40.3827 38.5076 40.3827 36.6667C40.3827 34.8258 38.7874 33.3335 36.8195 33.3335C34.8516 33.3335 33.2563 34.8258 33.2563 36.6667C33.2563 38.5076 34.8516 39.9999 36.8195 39.9999Z" fill="#E88F9F"/>
</svg>
