<svg width="53" height="53" viewBox="0 0 53 53" fill="none" xmlns="http://www.w3.org/2000/svg">
<path d="M44.1667 13.2502H8.83333V8.8335H44.1667V13.2502ZM31.5792 26.5002C29.8125 28.6202 28.7083 31.3143 28.7083 34.2293C28.7083 36.7468 29.6579 39.441 30.9167 41.9585V44.1668H8.83333V30.9168H6.625V26.5002L8.83333 15.4585H44.1667L45.7125 23.1877C44.255 22.481 42.665 22.0835 40.9867 22.0835L40.545 19.8752H12.455L11.13 26.5002H31.5792ZM26.5 30.9168H13.25V39.7501H26.5V30.9168ZM48.5833 34.2293C48.5833 39.971 40.8542 48.5835 40.8542 48.5835C40.8542 48.5835 33.125 39.971 33.125 34.2293C33.125 30.0335 36.6583 26.5002 40.8542 26.5002C45.05 26.5002 48.5833 30.0335 48.5833 34.2293ZM43.5042 34.4501C43.5042 33.1251 42.1792 31.8001 40.8542 31.8001C39.5292 31.8001 38.2042 32.9043 38.2042 34.4501C38.2042 35.7751 39.3083 37.1001 40.8542 37.1001C42.4 37.1001 43.725 35.7751 43.5042 34.4501Z" fill="#E88F9F"/>
</svg>
