<svg width="36" height="36" viewBox="0 0 36 36" fill="none" xmlns="http://www.w3.org/2000/svg">
<circle cx="17.9999" cy="18" r="13.2169" transform="rotate(-119.367 17.9999 18)" fill="#EAE6E6"/>
<path d="M18.616 4.79749C16.2547 4.6873 13.9071 5.21241 11.8178 6.3181C9.72845 7.42378 7.9739 9.06957 6.73696 11.084C5.50002 13.0983 4.82596 15.4076 4.78502 17.7711C4.74409 20.1346 5.33777 22.4658 6.50421 24.5218L17.9999 18L18.616 4.79749Z" fill="#E6BB25"/>
<path d="M29.0208 25.2736C30.32 23.318 31.0749 21.0517 31.2078 18.7077C31.3407 16.3637 30.8468 14.0266 29.7769 11.9368C28.707 9.84696 27.0998 8.07983 25.1205 6.81712C23.1412 5.55442 20.8613 4.84173 18.5152 4.75235L18.0121 17.9596L29.0208 25.2736Z" fill="#FFC163"/>
</svg>
