<svg width="24" height="24" viewBox="0 0 24 24" fill="none" xmlns="http://www.w3.org/2000/svg">
<path d="M2.48499 9.23077L9.7853 18.8221L6.2699 9.23077H2.48499ZM12 20.3654L16.0896 9.23077H7.91042L12 20.3654ZM6.30506 7.38462L8.69553 1.84615H5.62542L2.25063 7.38462H6.30506ZM14.2147 18.8221L21.515 9.23077H17.7301L14.2147 18.8221ZM8.00417 7.38462H15.9958L13.6054 1.84615H10.3946L8.00417 7.38462ZM17.6949 7.38462H21.7494L18.3746 1.84615H15.3045L17.6949 7.38462ZM19.3472 0.375L23.8469 7.75962C23.9563 7.93269 24.007 8.13221 23.9992 8.35817C23.9914 8.58414 23.925 8.77885 23.8 8.94231L12.5507 23.7115C12.4101 23.9038 12.2265 24 12 24C11.7735 24 11.5899 23.9038 11.4493 23.7115L0.199987 8.94231C0.0749951 8.77885 0.00859319 8.58414 0.000781199 8.35817C-0.00703079 8.13221 0.0437472 7.93269 0.153115 7.75962L4.65282 0.375C4.79344 0.125 4.99264 0 5.25044 0H18.7496C19.0074 0 19.2066 0.125 19.3472 0.375Z" fill="#BB6878"/>
</svg>
