<svg width="22.5" height="25" viewBox="0 0 30 30" fill="none" xmlns="http://www.w3.org/2000/svg">
<path d="M22.5 27.5C21.4583 27.5 20.5729 27.1354 19.8438 26.4063C19.1146 25.6771 18.75 24.7917 18.75 23.75C18.75 23.6042 18.7604 23.4529 18.7812 23.2963C18.8021 23.1396 18.8333 22.9992 18.875 22.875L10.0625 17.75C9.70833 18.0625 9.3125 18.3075 8.875 18.485C8.4375 18.6625 7.97917 18.7508 7.5 18.75C6.45833 18.75 5.57292 18.3854 4.84375 17.6563C4.11458 16.9271 3.75 16.0417 3.75 15C3.75 13.9583 4.11458 13.0729 4.84375 12.3438C5.57292 11.6146 6.45833 11.25 7.5 11.25C7.97917 11.25 8.4375 11.3388 8.875 11.5163C9.3125 11.6938 9.70833 11.9383 10.0625 12.25L18.875 7.125C18.8333 7 18.8021 6.85958 18.7812 6.70375C18.7604 6.54792 18.75 6.39667 18.75 6.25C18.75 5.20833 19.1146 4.32292 19.8438 3.59375C20.5729 2.86458 21.4583 2.5 22.5 2.5C23.5417 2.5 24.4271 2.86458 25.1562 3.59375C25.8854 4.32292 26.25 5.20833 26.25 6.25C26.25 7.29167 25.8854 8.17708 25.1562 8.90625C24.4271 9.63542 23.5417 10 22.5 10C22.0208 10 21.5625 9.91167 21.125 9.735C20.6875 9.55833 20.2917 9.31333 19.9375 9L11.125 14.125C11.1667 14.25 11.1979 14.3908 11.2188 14.5475C11.2396 14.7042 11.25 14.855 11.25 15C11.25 15.1458 11.2396 15.2971 11.2188 15.4538C11.1979 15.6104 11.1667 15.7508 11.125 15.875L19.9375 21C20.2917 20.6875 20.6875 20.4429 21.125 20.2663C21.5625 20.0896 22.0208 20.0008 22.5 20C23.5417 20 24.4271 20.3646 25.1562 21.0938C25.8854 21.8229 26.25 22.7083 26.25 23.75C26.25 24.7917 25.8854 25.6771 25.1562 26.4063C24.4271 27.1354 23.5417 27.5 22.5 27.5ZM22.5 7.5C22.8542 7.5 23.1512 7.38 23.3912 7.14C23.6312 6.9 23.7508 6.60333 23.75 6.25C23.75 5.89583 23.63 5.59875 23.39 5.35875C23.15 5.11875 22.8533 4.99917 22.5 5C22.1458 5 21.8488 5.12 21.6088 5.36C21.3688 5.6 21.2492 5.89667 21.25 6.25C21.25 6.60417 21.37 6.90125 21.61 7.14125C21.85 7.38125 22.1467 7.50083 22.5 7.5ZM7.5 16.25C7.85417 16.25 8.15125 16.13 8.39125 15.89C8.63125 15.65 8.75083 15.3533 8.75 15C8.75 14.6458 8.63 14.3488 8.39 14.1088C8.15 13.8688 7.85333 13.7492 7.5 13.75C7.14583 13.75 6.84875 13.87 6.60875 14.11C6.36875 14.35 6.24917 14.6467 6.25 15C6.25 15.3542 6.37 15.6513 6.61 15.8913C6.85 16.1313 7.14667 16.2508 7.5 16.25ZM22.5 25C22.8542 25 23.1512 24.88 23.3912 24.64C23.6312 24.4 23.7508 24.1033 23.75 23.75C23.75 23.3958 23.63 23.0988 23.39 22.8588C23.15 22.6188 22.8533 22.4992 22.5 22.5C22.1458 22.5 21.8488 22.62 21.6088 22.86C21.3688 23.1 21.2492 23.3967 21.25 23.75C21.25 24.1042 21.37 24.4013 21.61 24.6413C21.85 24.8813 22.1467 25.0008 22.5 25Z" fill="#BB6878"/>
</svg>
