<svg width="135" height="135" viewBox="0 0 135 135" fill="none" xmlns="http://www.w3.org/2000/svg">
<path d="M67.1373 95.5575C51.0996 95.3779 39.1304 82.988 39.3587 66.7861C39.5767 51.3744 52.3745 38.8254 67.6426 39.0589C83.3314 39.2949 96.0497 52.2799 95.8804 67.8866C95.7111 83.3086 82.803 95.7345 67.1373 95.5575Z" fill="#D88694" fill-opacity="0.9"/>
<path d="M82.4216 34.384C82.3292 36.6696 82.2907 38.6935 78.5507 37.2596C71.1629 34.425 63.5596 34.4712 56.1641 37.3288C53.1321 38.5011 52.7191 37.2237 52.5421 34.7457C52.2856 31.0415 54.2454 28.6841 57.0261 26.7705C60.1043 24.6465 63.6571 23.2202 66.3762 20.5498C67.0457 19.8906 67.705 19.6956 68.4284 20.437C71.2988 23.3587 75.2185 24.7132 78.4327 27.1065C80.7798 28.8637 82.5088 31.003 82.4216 34.384Z" fill="#D88694" fill-opacity="0.9"/>
<path d="M52.556 100.883C52.4995 97.1173 53.1793 96.6119 56.6039 97.7868C63.966 100.316 71.3769 100.396 78.6415 97.6123C81.4992 96.517 82.2328 97.4405 82.4124 100.047C82.6689 103.72 80.8066 106.129 78.0002 108.066C74.922 110.195 71.3794 111.639 68.6347 114.278C68.0293 114.861 67.4265 115.387 66.6236 114.571C63.5581 111.462 59.3409 110.056 56.0062 107.368C53.9309 105.718 52.4149 103.728 52.556 100.883Z" fill="#D88694" fill-opacity="0.9"/>
<path d="M49.0418 40.8309C41.5847 46.5153 36.7134 53.8031 35.5668 63.2584C35.3539 65.0284 34.7254 65.2131 33.2581 64.6308C30.2235 63.4329 27.7044 61.7296 27.3581 58.1973C26.9066 53.6697 26.6706 49.1216 26.2936 44.5863C26.2038 43.5089 26.8451 43.1934 27.6429 42.9471C31.2726 41.8339 34.3124 39.5252 37.719 37.9604C42.3287 35.8415 45.5608 36.6547 49.0418 40.8309Z" fill="#D88694" fill-opacity="0.9"/>
<path d="M93.0624 36.9299C96.8692 36.7016 99.4472 39.9415 102.838 40.8855C107.969 42.3117 109.095 45.3643 108.225 50.151C107.73 52.8855 108.295 55.7508 107.615 58.5469C107.185 60.3864 106.11 62.0109 104.585 63.1258C101.381 65.5807 100.058 65.1087 99.1984 61.284C97.5515 54.0039 94.0475 47.8115 88.3989 42.8761C85.5131 40.3545 85.6285 39.685 89.0607 37.7919C90.2895 37.1146 91.5644 36.8812 93.0624 36.9299Z" fill="#D88694" fill-opacity="0.9"/>
<path d="M85.8203 94.0975C93.362 88.4874 98.1205 81.1355 99.4159 71.7366C99.6724 69.8435 100.734 70.0667 101.981 70.3976C105.485 71.3211 107.807 74.6558 108.104 79.4015C108.32 82.8799 108.276 86.3788 108.579 89.847C108.684 91.0577 108.379 91.617 107.35 91.9351C103.723 93.0535 100.681 95.3673 97.274 96.9167C92.6104 99.0253 89.5193 98.2557 85.8203 94.0975Z" fill="#D88694" fill-opacity="0.9"/>
<path d="M49.0814 94.064C45.3721 98.3992 42.1118 99.1944 37.3482 96.8267C34.1109 95.2235 31.1532 93.0815 27.6928 91.899C26.9873 91.6578 26.069 91.3859 26.2973 90.288C27.2798 85.5321 26.2537 80.6223 27.4285 75.8793C27.8005 74.3786 28.6727 73.2166 29.7885 72.2238C33.2105 69.1789 34.8779 69.7074 35.8629 74.0733C37.7432 82.3974 42.2529 89.0234 49.0814 94.064Z" fill="#D88694" fill-opacity="0.9"/>
<path d="M55.7975 16.233C55.6205 13.3959 56.2823 11.6362 57.8009 10.3613C60.7868 7.86018 64.2319 4.54594 67.6231 4.6229C70.827 4.69216 74.0541 8.13467 77.0759 10.3587C79.4051 12.0697 79.5 14.7195 79.0075 17.3617C78.6022 19.519 76.6167 19.3626 75.1443 19.5909C72.3918 20.0193 70.9733 17.7234 69.8779 15.9406C68.0823 13.006 66.9408 12.28 65.181 15.8687C64.6218 17.0103 63.3084 17.7644 62.4183 18.7649C60.8792 20.4836 59.1477 19.5344 57.5649 19.0881C55.8129 18.5802 55.8488 16.8923 55.7975 16.233Z" fill="#D88694" fill-opacity="0.9"/>
<path d="M79.1944 119.612C79.3893 122.178 78.1349 124.05 76.1572 125.41C73.7228 127.085 71.1653 128.588 68.6642 130.166C68.0999 130.522 67.5201 131.012 66.8481 130.504C63.8493 128.224 60.1272 126.99 57.4953 124.214C55.3996 122.019 55.0353 117.288 56.9258 116.147C59.7707 114.415 62.6232 115.064 64.1777 117.873C66.8019 122.611 68.6129 121.529 70.9421 117.694C72.2888 115.472 74.4872 114.659 77.2192 115.667C79.279 116.429 79.1097 118.025 79.1944 119.612Z" fill="#D88694" fill-opacity="0.9"/>
<path d="M122.052 94.0829C121.492 95.522 123.591 98.2103 121.795 99.2441C118.037 101.422 114.535 104.631 109.9 104.669C107.502 104.685 104.739 103.51 104.441 100.822C104.118 97.8973 106.05 95.8837 109.156 95.4348C109.949 95.3038 110.751 95.2403 111.555 95.2449C114.474 95.3142 115.202 94.5036 113.52 91.7357C112.06 89.3296 111.149 86.572 113.491 83.9657C114.543 82.796 115.544 82.0059 117.293 82.8063C120.271 84.1658 121.977 86.2795 122.041 89.5989C122.072 90.938 122.052 92.2795 122.052 94.0829Z" fill="#D88694" fill-opacity="0.9"/>
<path d="M12.8616 40.879C13.5105 39.3629 11.3224 36.5566 13.4669 35.4074C17.1788 33.4193 20.5084 30.1641 25.0386 30.2436C27.4524 30.2847 30.2023 31.38 30.4871 34.0914C30.7975 37.0286 28.8223 38.9987 25.744 39.4784C24.9517 39.6107 24.1485 39.6665 23.3455 39.6451C20.2468 39.5245 19.9005 40.5891 21.4191 43.1902C22.8402 45.6323 23.8073 48.336 21.4575 50.9602C20.3853 52.1556 19.3874 52.8354 17.6482 52.1171C14.57 50.8345 12.9975 48.6387 12.8692 45.3655C12.8179 44.0136 12.8616 42.672 12.8616 40.879Z" fill="#D88694" fill-opacity="0.9"/>
<path d="M12.7872 93.8938C12.9411 90.8464 12.2998 87.8861 14.175 85.4286C15.5961 83.5663 17.5508 81.8015 19.9287 82.7429C22.3682 83.7074 23.7919 86.3598 22.4939 88.7455C19.7004 93.8476 20.9548 95.7125 26.6239 95.7895C29.5611 95.8305 30.936 98.5779 30.4717 100.943C29.9433 103.683 27.1369 104.842 24.464 104.622C20.1622 104.268 16.7864 101.441 13.2746 99.3038C11.4815 98.2239 13.3695 95.5458 12.7872 93.8938Z" fill="#D88694" fill-opacity="0.9"/>
<path d="M122.106 40.9171C122.04 44.9188 122.663 48.6127 119.208 50.9778C117.925 51.8628 116.437 53.1557 114.847 52.1321C113.159 51.0522 111.286 49.3104 112.382 47.1762C115.506 41.1146 113.005 39.4216 107.141 38.5468C103.65 38.0338 103.416 33.5832 106.371 31.49C108.855 29.7277 111.43 29.9765 113.972 31.218C116.376 32.3929 118.677 33.7832 121.065 34.9838C124.41 36.6896 120.57 39.5113 122.106 40.9171Z" fill="#D88694" fill-opacity="0.9"/>
<path d="M23.1178 79.588C19.9139 75.3811 18.3747 71.2819 15.2914 68.2832C14.7014 67.7111 14.7296 67.1622 15.2914 66.603C18.3568 63.5991 19.8805 59.4896 23.0434 55.4648C23.3127 60.2823 24.6031 63.93 28.0738 66.4003C29.1178 67.1442 29.0511 67.8163 28.0379 68.5551C24.6518 71.0228 23.2691 74.5115 23.1178 79.588Z" fill="#D88694" fill-opacity="0.9"/>
<path d="M111.65 79.6213C111.886 73.7214 109.423 70.3379 105.727 67.4392C109.474 64.5995 111.842 61.1596 111.662 55.1416C115.072 59.5461 116.749 63.8197 119.894 66.9621C120.061 67.1314 120.033 67.7983 119.851 67.9702C116.613 71.033 115.184 75.3862 111.65 79.6213Z" fill="#D88694" fill-opacity="0.9"/>
<path d="M55.1529 22.8881C51.2512 26.1177 48.5706 29.5089 48.3807 34.4675C43.866 32.2691 39.618 32.559 34.7852 34.9113C36.8014 30.3324 39.5564 26.9437 40.5851 22.7727C40.6195 22.6049 40.6896 22.4464 40.7906 22.308C40.8916 22.1696 41.0212 22.0546 41.1705 21.9706C41.3199 21.8867 41.4856 21.8359 41.6563 21.8216C41.827 21.8073 41.9989 21.8298 42.1601 21.8877C46.1824 23.0959 50.3842 22.2161 55.1529 22.8881Z" fill="#D88694" fill-opacity="0.9"/>
<path d="M48.408 100.312C48.6132 105.442 51.1579 108.797 55.0775 111.855C50.4601 112.914 46.0993 111.691 42.036 113.045C41.3331 113.279 40.7277 112.763 40.5559 112.019C39.5939 107.874 36.7722 104.626 34.9766 100.332C39.4631 102.017 43.6982 102.846 48.408 100.312Z" fill="#D88694" fill-opacity="0.9"/>
<path d="M99.4134 34.843C95.3475 32.1547 91.1124 32.5189 86.5592 34.3915C86.3642 29.51 83.7143 26.1008 79.7383 22.9174C84.4967 22.1991 88.6729 23.0841 92.672 21.917C93.8905 21.5604 94.2419 22.4608 94.5369 23.4561C95.5861 26.9627 97.5972 29.9871 99.4673 33.0782C99.8751 33.6759 101.527 34.3146 99.4134 34.843Z" fill="#D88694" fill-opacity="0.9"/>
<path d="M86.5047 100.365C91.1144 102.62 95.2572 102.363 100.005 100.055C98.0994 104.585 95.388 108.056 94.1849 112.201C93.9771 112.922 93.2461 113.206 92.5458 112.988C88.6287 111.773 84.5628 112.683 79.5273 112.021C83.8112 108.876 86.3713 105.311 86.5047 100.365Z" fill="#D88694" fill-opacity="0.9"/>
<path d="M117.406 56.0956C122.644 54.7669 124.527 58.1478 127.182 61.1747C131.653 66.2692 129.786 70.2658 126.456 74.7472C124.199 77.7844 121.913 80.0033 117.478 78.7849C119.235 75.0089 121.005 71.4099 124.74 69.3911C127.562 67.852 127.262 66.89 124.643 65.4638C121.051 63.5091 119.333 59.964 117.406 56.0956Z" fill="#D88694" fill-opacity="0.9"/>
<path d="M32.7518 29.8388C29.1605 26.3424 30.6996 23.2385 31.7437 19.5934C33.9728 11.8978 39.5445 12.3697 45.4495 12.8674C49.205 13.1855 50.6543 14.3424 52.0113 18.3928C47.8095 18.7776 43.7411 18.9649 39.9754 16.6639C37.7873 15.3249 37.0896 16.2868 37.1537 18.4929C37.2922 22.7742 35.0579 26.1244 32.7518 29.8388Z" fill="#D88694" fill-opacity="0.9"/>
<path d="M17.3942 78.7592C14.0595 79.7853 11.5481 78.8798 9.73709 76.3967C7.92606 73.9136 6.38437 71.2227 4.73751 68.6164C4.5246 68.2804 4.22447 67.9135 4.20908 67.5467C4.06543 65.2868 11.5071 56.1367 13.826 55.8212C14.8521 55.6827 16.3143 55.5288 16.9043 56.0905C17.8534 56.9781 16.5811 57.9939 16.0962 58.8456C14.4904 61.6673 12.7384 64.3531 9.6704 65.8511C7.36171 66.9798 7.75163 68.0392 9.77814 69.1166C13.6824 71.1919 15.6191 74.7883 17.3942 78.7592Z" fill="#D88694" fill-opacity="0.9"/>
<path d="M102.147 29.7643C99.9642 26.2499 97.6119 22.9639 97.7581 18.6749C97.8376 16.2559 97.1707 15.2888 94.7671 16.7587C91.1142 18.9904 87.0945 18.7185 82.8594 18.4363C83.6289 14.7809 85.9145 13.1853 89.3186 12.875C98.8637 12.0054 99.2998 12.249 103.358 20.1935C105.089 23.5796 105.577 26.7707 102.147 29.7643Z" fill="#D88694" fill-opacity="0.9"/>
<path d="M102.121 105.072C104.971 107.653 105.251 110.349 104.012 113.376C100.659 121.584 97.65 123.298 88.7846 121.995C87.8573 121.868 86.9585 121.583 86.1271 121.154C84.5443 120.304 82.7718 118.906 83.1078 117.249C83.5131 115.248 85.7731 116.48 87.189 116.341C89.9261 116.056 92.5118 116.813 94.8847 118.201C96.9727 119.43 97.8834 118.822 97.7577 116.482C97.5114 112.165 99.9022 108.887 102.121 105.072Z" fill="#D88694" fill-opacity="0.9"/>
<path d="M52.2378 116.454C50.9219 120.689 48.2746 122.041 44.5191 122.13C35.3178 122.348 35.3537 122.387 31.4187 114.417C29.7769 111.082 29.5717 108.06 32.8218 105.082C34.9766 108.619 37.1827 111.926 37.1596 116.148C37.1416 118.413 37.6034 119.693 40.1224 118.167C43.7752 115.958 47.777 116.128 52.2378 116.454Z" fill="#D88694" fill-opacity="0.9"/>
<path d="M15.2539 105.299C18.7939 106.697 21.4643 108.757 24.8888 108.495C25.8123 108.423 26.4792 108.813 26.41 109.867C26.1868 113.274 28.0312 116.024 29.6729 119.566C25.6892 118.689 22.18 117.909 18.6656 117.142C17.8217 116.958 17.7986 116.278 17.6395 115.626C16.9136 112.386 16.1517 109.152 15.2539 105.299Z" fill="#D88694" fill-opacity="0.9"/>
<path d="M108.415 26.5518C109.064 22.5911 107.374 19.2384 105.227 15.6214C109.249 15.5932 112.481 17.376 115.97 17.689C116.996 17.7813 117.106 18.5278 117.291 19.3615C117.999 22.5937 118.791 25.8079 119.679 29.5633C115.764 27.8498 112.427 25.6924 108.392 26.5441L108.415 26.5518Z" fill="#D88694" fill-opacity="0.9"/>
<path d="M15.3086 29.5469C16.1654 25.7709 16.9683 22.413 17.6686 19.0295C17.8764 18.0291 18.4381 17.8213 19.3103 17.6341C22.563 16.9235 25.7977 16.1283 29.6045 15.2305C28.1397 18.6986 26.2056 21.5075 26.3467 24.95C26.3579 25.1214 26.3338 25.2933 26.2758 25.4549C26.2178 25.6166 26.1271 25.7646 26.0095 25.8897C25.8918 26.0148 25.7497 26.1144 25.5919 26.1822C25.4341 26.25 25.264 26.2847 25.0923 26.2839C21.5933 26.148 18.7973 28.1976 15.3086 29.5469Z" fill="#D88694" fill-opacity="0.9"/>
<path d="M105.27 119.699C106.765 116.151 108.709 113.445 108.579 110.038C108.543 109.1 109.212 108.53 110.118 108.54C113.481 108.584 116.274 106.904 119.627 105.316C118.765 109.059 117.924 112.401 117.262 115.777C117.005 117.041 116.236 117.098 115.289 117.316C112.196 118.009 109.087 118.778 105.27 119.699Z" fill="#D88694" fill-opacity="0.9"/>
<path d="M3.42435 74.0537C5.58425 77.3141 7.02846 80.1204 9.83736 81.7006C10.8788 82.2906 11.0122 82.9832 10.4274 84.0093C8.83436 86.7823 8.81128 89.8913 8.84719 93.7853C5.67404 90.943 3.01392 88.5933 0.402539 86.1948C-0.133589 85.7049 -0.0515058 85.0097 0.174232 84.3171C1.19518 81.1285 2.19049 77.94 3.42435 74.0537Z" fill="#D88694" fill-opacity="0.9"/>
<path d="M131.504 74.2432C132.718 77.9755 133.782 81.241 134.839 84.504C134.967 84.8151 134.993 85.1589 134.912 85.4855C134.831 85.8121 134.648 86.1044 134.39 86.3201C131.825 88.6288 129.275 90.9375 126.202 93.7285C126.105 89.7703 126.007 86.4279 124.281 83.4676C123.819 82.675 124.263 82.185 124.884 81.8567C127.857 80.256 129.301 77.2675 131.504 74.2432Z" fill="#D88694" fill-opacity="0.9"/>
<path d="M126.21 41.1621C129.288 43.9505 131.825 46.2771 134.385 48.6012C134.952 49.1142 135.175 49.753 134.849 50.3968C133.31 53.4956 133.336 57.1613 131.294 60.5012C129.363 57.5948 127.821 54.6936 124.899 53.0467C124.294 52.7055 123.824 52.2258 124.291 51.4332C126.046 48.4729 126.118 45.1253 126.21 41.1621Z" fill="#D88694" fill-opacity="0.9"/>
<path d="M3.47504 61.0244C2.19243 57.0073 1.21253 53.8136 0.171053 50.6353C-0.111119 49.7759 -0.0444182 49.1269 0.666143 48.4882C3.15183 46.259 5.59903 43.9837 8.47462 41.3467C9.05436 45.1047 8.8671 48.6216 10.6756 51.6537C11.1373 52.4232 10.3729 52.8619 9.81366 53.1928C7.05607 54.8422 5.48359 57.5203 3.47504 61.0244Z" fill="#D88694" fill-opacity="0.9"/>
<path d="M41.1836 126.219C45.0314 125.998 48.1609 126.152 50.9314 124.521C51.9215 123.933 52.6449 124.044 53.2401 125.093C54.8356 127.873 57.547 129.418 60.9357 131.395C56.916 132.704 53.5915 133.794 50.2593 134.866C49.5385 135.097 49.0075 134.779 48.5098 134.227C46.2755 131.747 44.0079 129.297 41.1836 126.219Z" fill="#D88694" fill-opacity="0.9"/>
<path d="M93.9531 126.009C90.9646 129.282 88.697 131.729 86.4781 134.218C85.8445 134.931 85.1955 135.039 84.3387 134.756C81.163 133.73 77.9744 132.717 74.4062 131.578C77.1587 129.193 80.3883 127.859 81.9633 124.757C82.3045 124.083 82.8996 123.926 83.6436 124.344C86.5422 125.96 89.7487 126.217 93.9531 126.009Z" fill="#D88694" fill-opacity="0.9"/>
<path d="M74.2695 3.38458C77.907 2.21997 81.0955 1.23237 84.2559 0.162682C85.3281 -0.201577 85.9489 0.113943 86.6697 0.932243C88.7937 3.34353 91.0306 5.65991 93.5804 8.39955C89.9224 9.0588 86.3978 8.8382 83.4094 10.6492C82.6193 11.1264 82.1627 10.5107 81.8266 9.93611C80.1464 7.05282 77.2323 5.52139 74.2695 3.38458Z" fill="#D88694" fill-opacity="0.9"/>
<path d="M60.6396 3.36346C57.5614 5.64649 54.7396 7.06505 53.1543 9.88421C52.7208 10.6538 52.2026 11.0591 51.215 10.4922C48.342 8.8376 45.1124 8.74526 41.1133 8.81965C43.8863 5.76193 46.2001 3.24033 48.4729 0.680254C49.1013 -0.0277427 49.7375 -0.140608 50.6097 0.146695C53.7828 1.19586 56.9739 2.19373 60.6396 3.36346Z" fill="#D88694" fill-opacity="0.9"/>
<g filter="url(#filter0_i_181_14052)">
<path d="M68.6685 87.9703L89.4467 63.5444L84.2598 54.8817H52.5565L47.3594 63.7163L60.3521 78.2687C60.3521 78.2687 57.9254 73.9386 66.07 65.6222C66.07 65.6222 61.0447 67.7 57.9254 73.9386L51.5124 66.1429C51.5124 66.1429 49.4372 63.3725 53.0746 63.3725C53.0746 63.3725 48.7446 63.547 51.6894 60.4277L53.7698 56.7902H83.0465L85.8195 60.774C85.8195 60.774 87.2047 63.547 83.7417 63.547C83.7417 63.547 87.2047 63.2007 84.7677 65.7992L68.3222 85.1999C68.3222 85.1999 62.9507 79.8283 67.6296 74.6312C67.6296 74.6312 81.1431 61.1177 80.9687 57.9984C80.9687 57.9984 82.0948 49.5974 73.3449 50.7235C73.3449 50.7235 69.7946 51.2366 69.0148 54.7073C69.0148 54.7073 71.9597 51.7624 74.2119 53.063C76.4642 54.3635 75.02 58.0446 74.1247 59.3862C73.2602 60.6842 68.6685 66.2276 68.6685 66.2276C68.6685 66.2276 60.093 75.7573 63.9896 82.0806L68.6685 87.9703Z" fill="white"/>
</g>
<defs>
<filter id="filter0_i_181_14052" x="47.3594" y="50.6196" width="42.0874" height="62.822" filterUnits="userSpaceOnUse" color-interpolation-filters="sRGB">
<feFlood flood-opacity="0" result="BackgroundImageFix"/>
<feBlend mode="normal" in="SourceGraphic" in2="BackgroundImageFix" result="shape"/>
<feColorMatrix in="SourceAlpha" type="matrix" values="0 0 0 0 0 0 0 0 0 0 0 0 0 0 0 0 0 0 127 0" result="hardAlpha"/>
<feOffset dy="25.4714"/>
<feGaussianBlur stdDeviation="12.7357"/>
<feComposite in2="hardAlpha" operator="arithmetic" k2="-1" k3="1"/>
<feColorMatrix type="matrix" values="0 0 0 0 0.733333 0 0 0 0 0.407843 0 0 0 0 0.470588 0 0 0 0.1 0"/>
<feBlend mode="normal" in2="shape" result="effect1_innerShadow_181_14052"/>
</filter>
</defs>
</svg>
