<svg width="360" height="68" viewBox="0 0 360 68" fill="none" xmlns="http://www.w3.org/2000/svg">
<mask id="path-1-inside-1_3820_5828" fill="white">
<path d="M0 7H360V61H0V7Z"/>
</mask>
<path d="M0 7H360V61H0V7Z" fill="#FFE7EC"/>
<path d="M0 8H360V6H0V8ZM360 60H0V62H360V60Z" fill="#E88F9F" mask="url(#path-1-inside-1_3820_5828)"/>
<path d="M168.813 22.06C168.581 21.572 168.245 21.196 167.805 20.932C167.365 20.66 166.853 20.524 166.269 20.524C165.685 20.524 165.157 20.66 164.685 20.932C164.221 21.196 163.853 21.58 163.581 22.084C163.317 22.58 163.185 23.156 163.185 23.812C163.185 24.468 163.317 25.044 163.581 25.54C163.853 26.036 164.221 26.42 164.685 26.692C165.157 26.956 165.685 27.088 166.269 27.088C167.085 27.088 167.757 26.844 168.285 26.356C168.813 25.868 169.121 25.208 169.209 24.376H165.873V23.488H170.373V24.328C170.309 25.016 170.093 25.648 169.725 26.224C169.357 26.792 168.873 27.244 168.273 27.58C167.673 27.908 167.005 28.072 166.269 28.072C165.493 28.072 164.785 27.892 164.145 27.532C163.505 27.164 162.997 26.656 162.621 26.008C162.253 25.36 162.069 24.628 162.069 23.812C162.069 22.996 162.253 22.264 162.621 21.616C162.997 20.96 163.505 20.452 164.145 20.092C164.785 19.724 165.493 19.54 166.269 19.54C167.157 19.54 167.941 19.76 168.621 20.2C169.309 20.64 169.809 21.26 170.121 22.06H168.813ZM174.685 28.108C174.069 28.108 173.509 27.968 173.005 27.688C172.509 27.408 172.117 27.012 171.829 26.5C171.549 25.98 171.409 25.38 171.409 24.7C171.409 24.028 171.553 23.436 171.841 22.924C172.137 22.404 172.537 22.008 173.041 21.736C173.545 21.456 174.109 21.316 174.733 21.316C175.357 21.316 175.921 21.456 176.425 21.736C176.929 22.008 177.325 22.4 177.613 22.912C177.909 23.424 178.057 24.02 178.057 24.7C178.057 25.38 177.905 25.98 177.601 26.5C177.305 27.012 176.901 27.408 176.389 27.688C175.877 27.968 175.309 28.108 174.685 28.108ZM174.685 27.148C175.077 27.148 175.445 27.056 175.789 26.872C176.133 26.688 176.409 26.412 176.617 26.044C176.833 25.676 176.941 25.228 176.941 24.7C176.941 24.172 176.837 23.724 176.629 23.356C176.421 22.988 176.149 22.716 175.813 22.54C175.477 22.356 175.113 22.264 174.721 22.264C174.321 22.264 173.953 22.356 173.617 22.54C173.289 22.716 173.025 22.988 172.825 23.356C172.625 23.724 172.525 24.172 172.525 24.7C172.525 25.236 172.621 25.688 172.813 26.056C173.013 26.424 173.277 26.7 173.605 26.884C173.933 27.06 174.293 27.148 174.685 27.148ZM180.584 19.12V28H179.492V19.12H180.584ZM182.037 24.688C182.037 24.016 182.173 23.428 182.445 22.924C182.717 22.412 183.089 22.016 183.561 21.736C184.041 21.456 184.577 21.316 185.169 21.316C185.681 21.316 186.157 21.436 186.597 21.676C187.037 21.908 187.373 22.216 187.605 22.6V19.12H188.709V28H187.605V26.764C187.389 27.156 187.069 27.48 186.645 27.736C186.221 27.984 185.725 28.108 185.157 28.108C184.573 28.108 184.041 27.964 183.561 27.676C183.089 27.388 182.717 26.984 182.445 26.464C182.173 25.944 182.037 25.352 182.037 24.688ZM187.605 24.7C187.605 24.204 187.505 23.772 187.305 23.404C187.105 23.036 186.833 22.756 186.489 22.564C186.153 22.364 185.781 22.264 185.373 22.264C184.965 22.264 184.593 22.36 184.257 22.552C183.921 22.744 183.653 23.024 183.453 23.392C183.253 23.76 183.153 24.192 183.153 24.688C183.153 25.192 183.253 25.632 183.453 26.008C183.653 26.376 183.921 26.66 184.257 26.86C184.593 27.052 184.965 27.148 185.373 27.148C185.781 27.148 186.153 27.052 186.489 26.86C186.833 26.66 187.105 26.376 187.305 26.008C187.505 25.632 187.605 25.196 187.605 24.7ZM202.238 19.696V28H201.146V21.808L198.386 28H197.618L194.846 21.796V28H193.754V19.696H194.93L198.002 26.56L201.074 19.696H202.238ZM204.654 20.356C204.446 20.356 204.27 20.284 204.126 20.14C203.982 19.996 203.91 19.82 203.91 19.612C203.91 19.404 203.982 19.228 204.126 19.084C204.27 18.94 204.446 18.868 204.654 18.868C204.854 18.868 205.022 18.94 205.158 19.084C205.302 19.228 205.374 19.404 205.374 19.612C205.374 19.82 205.302 19.996 205.158 20.14C205.022 20.284 204.854 20.356 204.654 20.356ZM205.182 21.424V28H204.09V21.424H205.182ZM210.247 21.304C211.047 21.304 211.695 21.548 212.191 22.036C212.687 22.516 212.935 23.212 212.935 24.124V28H211.855V24.28C211.855 23.624 211.691 23.124 211.363 22.78C211.035 22.428 210.587 22.252 210.019 22.252C209.443 22.252 208.983 22.432 208.639 22.792C208.303 23.152 208.135 23.676 208.135 24.364V28H207.043V21.424H208.135V22.36C208.351 22.024 208.643 21.764 209.011 21.58C209.387 21.396 209.799 21.304 210.247 21.304ZM220.719 24.46C220.719 24.668 220.707 24.888 220.683 25.12H215.427C215.467 25.768 215.687 26.276 216.087 26.644C216.495 27.004 216.987 27.184 217.563 27.184C218.035 27.184 218.427 27.076 218.739 26.86C219.059 26.636 219.283 26.34 219.411 25.972H220.587C220.411 26.604 220.059 27.12 219.531 27.52C219.003 27.912 218.347 28.108 217.563 28.108C216.939 28.108 216.379 27.968 215.883 27.688C215.395 27.408 215.011 27.012 214.731 26.5C214.451 25.98 214.311 25.38 214.311 24.7C214.311 24.02 214.447 23.424 214.719 22.912C214.991 22.4 215.371 22.008 215.859 21.736C216.355 21.456 216.923 21.316 217.563 21.316C218.187 21.316 218.739 21.452 219.219 21.724C219.699 21.996 220.067 22.372 220.323 22.852C220.587 23.324 220.719 23.86 220.719 24.46ZM219.591 24.232C219.591 23.816 219.499 23.46 219.315 23.164C219.131 22.86 218.879 22.632 218.559 22.48C218.247 22.32 217.899 22.24 217.515 22.24C216.963 22.24 216.491 22.416 216.099 22.768C215.715 23.12 215.495 23.608 215.439 24.232H219.591ZM271.674 21.08V28H270.764V22.84L268.464 28H267.824L265.514 22.83V28H264.604V21.08H265.584L268.144 26.8L270.704 21.08H271.674ZM275.607 28.09C275.094 28.09 274.627 27.9733 274.207 27.74C273.794 27.5067 273.467 27.1767 273.227 26.75C272.994 26.3167 272.877 25.8167 272.877 25.25C272.877 24.69 272.997 24.1967 273.237 23.77C273.484 23.3367 273.817 23.0067 274.237 22.78C274.657 22.5467 275.127 22.43 275.647 22.43C276.167 22.43 276.637 22.5467 277.057 22.78C277.477 23.0067 277.807 23.3333 278.047 23.76C278.294 24.1867 278.417 24.6833 278.417 25.25C278.417 25.8167 278.291 26.3167 278.037 26.75C277.791 27.1767 277.454 27.5067 277.027 27.74C276.601 27.9733 276.127 28.09 275.607 28.09ZM275.607 27.29C275.934 27.29 276.241 27.2133 276.527 27.06C276.814 26.9067 277.044 26.6767 277.217 26.37C277.397 26.0633 277.487 25.69 277.487 25.25C277.487 24.81 277.401 24.4367 277.227 24.13C277.054 23.8233 276.827 23.5967 276.547 23.45C276.267 23.2967 275.964 23.22 275.637 23.22C275.304 23.22 274.997 23.2967 274.717 23.45C274.444 23.5967 274.224 23.8233 274.057 24.13C273.891 24.4367 273.807 24.81 273.807 25.25C273.807 25.6967 273.887 26.0733 274.047 26.38C274.214 26.6867 274.434 26.9167 274.707 27.07C274.981 27.2167 275.281 27.29 275.607 27.29ZM282.284 22.42C282.95 22.42 283.49 22.6233 283.904 23.03C284.317 23.43 284.524 24.01 284.524 24.77V28H283.624V24.9C283.624 24.3533 283.487 23.9367 283.214 23.65C282.94 23.3567 282.567 23.21 282.094 23.21C281.614 23.21 281.23 23.36 280.944 23.66C280.664 23.96 280.524 24.3967 280.524 24.97V28H279.614V22.52H280.524V23.3C280.704 23.02 280.947 22.8033 281.254 22.65C281.567 22.4967 281.91 22.42 282.284 22.42ZM287.12 23.27V26.5C287.12 26.7667 287.177 26.9567 287.29 27.07C287.404 27.1767 287.6 27.23 287.88 27.23H288.55V28H287.73C287.224 28 286.844 27.8833 286.59 27.65C286.337 27.4167 286.21 27.0333 286.21 26.5V23.27H285.5V22.52H286.21V21.14H287.12V22.52H288.55V23.27H287.12ZM292.373 22.42C292.786 22.42 293.159 22.51 293.493 22.69C293.826 22.8633 294.086 23.1267 294.273 23.48C294.466 23.8333 294.563 24.2633 294.563 24.77V28H293.663V24.9C293.663 24.3533 293.526 23.9367 293.253 23.65C292.979 23.3567 292.606 23.21 292.133 23.21C291.653 23.21 291.269 23.36 290.983 23.66C290.703 23.96 290.563 24.3967 290.563 24.97V28H289.653V20.6H290.563V23.3C290.743 23.02 290.989 22.8033 291.303 22.65C291.623 22.4967 291.979 22.42 292.373 22.42ZM296.959 20.6V28H296.049V20.6H296.959ZM303.23 22.52L299.93 30.58H298.99L300.07 27.94L297.86 22.52H298.87L300.59 26.96L302.29 22.52H303.23ZM311.471 23.07C311.471 23.65 311.271 24.1333 310.871 24.52C310.478 24.9 309.874 25.09 309.061 25.09H307.721V28H306.811V21.03H309.061C309.848 21.03 310.444 21.22 310.851 21.6C311.264 21.98 311.471 22.47 311.471 23.07ZM309.061 24.34C309.568 24.34 309.941 24.23 310.181 24.01C310.421 23.79 310.541 23.4767 310.541 23.07C310.541 22.21 310.048 21.78 309.061 21.78H307.721V24.34H309.061ZM313.512 20.6V28H312.602V20.6H313.512ZM314.723 25.24C314.723 24.68 314.836 24.19 315.063 23.77C315.29 23.3433 315.6 23.0133 315.993 22.78C316.393 22.5467 316.836 22.43 317.323 22.43C317.803 22.43 318.22 22.5333 318.573 22.74C318.926 22.9467 319.19 23.2067 319.363 23.52V22.52H320.283V28H319.363V26.98C319.183 27.3 318.913 27.5667 318.553 27.78C318.2 27.9867 317.786 28.09 317.313 28.09C316.826 28.09 316.386 27.97 315.993 27.73C315.6 27.49 315.29 27.1533 315.063 26.72C314.836 26.2867 314.723 25.7933 314.723 25.24ZM319.363 25.25C319.363 24.8367 319.28 24.4767 319.113 24.17C318.946 23.8633 318.72 23.63 318.433 23.47C318.153 23.3033 317.843 23.22 317.503 23.22C317.163 23.22 316.853 23.3 316.573 23.46C316.293 23.62 316.07 23.8533 315.903 24.16C315.736 24.4667 315.653 24.8267 315.653 25.24C315.653 25.66 315.736 26.0267 315.903 26.34C316.07 26.6467 316.293 26.8833 316.573 27.05C316.853 27.21 317.163 27.29 317.503 27.29C317.843 27.29 318.153 27.21 318.433 27.05C318.72 26.8833 318.946 26.6467 319.113 26.34C319.28 26.0267 319.363 25.6633 319.363 25.25ZM324.491 22.42C325.157 22.42 325.697 22.6233 326.111 23.03C326.524 23.43 326.731 24.01 326.731 24.77V28H325.831V24.9C325.831 24.3533 325.694 23.9367 325.421 23.65C325.147 23.3567 324.774 23.21 324.301 23.21C323.821 23.21 323.437 23.36 323.151 23.66C322.871 23.96 322.731 24.3967 322.731 24.97V28H321.821V22.52H322.731V23.3C322.911 23.02 323.154 22.8033 323.461 22.65C323.774 22.4967 324.117 22.42 324.491 22.42ZM138.997 49.14H135.349L134.677 51H133.525L136.549 42.684H137.809L140.821 51H139.669L138.997 49.14ZM138.685 48.252L137.173 44.028L135.661 48.252H138.685ZM141.731 47.688C141.731 47.016 141.867 46.428 142.139 45.924C142.411 45.412 142.783 45.016 143.255 44.736C143.735 44.456 144.271 44.316 144.863 44.316C145.375 44.316 145.851 44.436 146.291 44.676C146.731 44.908 147.067 45.216 147.299 45.6V42.12H148.403V51H147.299V49.764C147.083 50.156 146.763 50.48 146.339 50.736C145.915 50.984 145.419 51.108 144.851 51.108C144.267 51.108 143.735 50.964 143.255 50.676C142.783 50.388 142.411 49.984 142.139 49.464C141.867 48.944 141.731 48.352 141.731 47.688ZM147.299 47.7C147.299 47.204 147.199 46.772 146.999 46.404C146.799 46.036 146.527 45.756 146.183 45.564C145.847 45.364 145.475 45.264 145.067 45.264C144.659 45.264 144.287 45.36 143.951 45.552C143.615 45.744 143.347 46.024 143.147 46.392C142.947 46.76 142.847 47.192 142.847 47.688C142.847 48.192 142.947 48.632 143.147 49.008C143.347 49.376 143.615 49.66 143.951 49.86C144.287 50.052 144.659 50.148 145.067 50.148C145.475 50.148 145.847 50.052 146.183 49.86C146.527 49.66 146.799 49.376 146.999 49.008C147.199 48.632 147.299 48.196 147.299 47.7ZM149.841 47.688C149.841 47.016 149.977 46.428 150.249 45.924C150.521 45.412 150.893 45.016 151.365 44.736C151.845 44.456 152.381 44.316 152.973 44.316C153.485 44.316 153.961 44.436 154.401 44.676C154.841 44.908 155.177 45.216 155.409 45.6V42.12H156.513V51H155.409V49.764C155.193 50.156 154.873 50.48 154.449 50.736C154.025 50.984 153.529 51.108 152.961 51.108C152.377 51.108 151.845 50.964 151.365 50.676C150.893 50.388 150.521 49.984 150.249 49.464C149.977 48.944 149.841 48.352 149.841 47.688ZM155.409 47.7C155.409 47.204 155.309 46.772 155.109 46.404C154.909 46.036 154.637 45.756 154.293 45.564C153.957 45.364 153.585 45.264 153.177 45.264C152.769 45.264 152.397 45.36 152.061 45.552C151.725 45.744 151.457 46.024 151.257 46.392C151.057 46.76 150.957 47.192 150.957 47.688C150.957 48.192 151.057 48.632 151.257 49.008C151.457 49.376 151.725 49.66 152.061 49.86C152.397 50.052 152.769 50.148 153.177 50.148C153.585 50.148 153.957 50.052 154.293 49.86C154.637 49.66 154.909 49.376 155.109 49.008C155.309 48.632 155.409 48.196 155.409 47.7ZM158.922 43.356C158.714 43.356 158.538 43.284 158.394 43.14C158.25 42.996 158.178 42.82 158.178 42.612C158.178 42.404 158.25 42.228 158.394 42.084C158.538 41.94 158.714 41.868 158.922 41.868C159.122 41.868 159.29 41.94 159.426 42.084C159.57 42.228 159.642 42.404 159.642 42.612C159.642 42.82 159.57 42.996 159.426 43.14C159.29 43.284 159.122 43.356 158.922 43.356ZM159.45 44.424V51H158.358V44.424H159.45ZM162.643 45.324V49.2C162.643 49.52 162.711 49.748 162.847 49.884C162.983 50.012 163.219 50.076 163.555 50.076H164.359V51H163.375C162.767 51 162.311 50.86 162.007 50.58C161.703 50.3 161.551 49.84 161.551 49.2V45.324H160.699V44.424H161.551V42.768H162.643V44.424H164.359V45.324H162.643ZM166.246 43.356C166.038 43.356 165.862 43.284 165.718 43.14C165.574 42.996 165.502 42.82 165.502 42.612C165.502 42.404 165.574 42.228 165.718 42.084C165.862 41.94 166.038 41.868 166.246 41.868C166.446 41.868 166.614 41.94 166.75 42.084C166.894 42.228 166.966 42.404 166.966 42.612C166.966 42.82 166.894 42.996 166.75 43.14C166.614 43.284 166.446 43.356 166.246 43.356ZM166.774 44.424V51H165.682V44.424H166.774ZM171.503 51.108C170.887 51.108 170.327 50.968 169.823 50.688C169.327 50.408 168.935 50.012 168.647 49.5C168.367 48.98 168.227 48.38 168.227 47.7C168.227 47.028 168.371 46.436 168.659 45.924C168.955 45.404 169.355 45.008 169.859 44.736C170.363 44.456 170.927 44.316 171.551 44.316C172.175 44.316 172.739 44.456 173.243 44.736C173.747 45.008 174.143 45.4 174.431 45.912C174.727 46.424 174.875 47.02 174.875 47.7C174.875 48.38 174.723 48.98 174.419 49.5C174.123 50.012 173.719 50.408 173.207 50.688C172.695 50.968 172.127 51.108 171.503 51.108ZM171.503 50.148C171.895 50.148 172.263 50.056 172.607 49.872C172.951 49.688 173.227 49.412 173.435 49.044C173.651 48.676 173.759 48.228 173.759 47.7C173.759 47.172 173.655 46.724 173.447 46.356C173.239 45.988 172.967 45.716 172.631 45.54C172.295 45.356 171.931 45.264 171.539 45.264C171.139 45.264 170.771 45.356 170.435 45.54C170.107 45.716 169.843 45.988 169.643 46.356C169.443 46.724 169.343 47.172 169.343 47.7C169.343 48.236 169.439 48.688 169.631 49.056C169.831 49.424 170.095 49.7 170.423 49.884C170.751 50.06 171.111 50.148 171.503 50.148ZM179.515 44.304C180.315 44.304 180.963 44.548 181.459 45.036C181.955 45.516 182.203 46.212 182.203 47.124V51H181.123V47.28C181.123 46.624 180.959 46.124 180.631 45.78C180.303 45.428 179.855 45.252 179.287 45.252C178.711 45.252 178.251 45.432 177.907 45.792C177.571 46.152 177.403 46.676 177.403 47.364V51H176.311V44.424H177.403V45.36C177.619 45.024 177.911 44.764 178.279 44.58C178.655 44.396 179.067 44.304 179.515 44.304ZM183.579 47.688C183.579 47.016 183.715 46.428 183.987 45.924C184.259 45.412 184.631 45.016 185.103 44.736C185.583 44.456 186.115 44.316 186.699 44.316C187.275 44.316 187.775 44.44 188.199 44.688C188.623 44.936 188.939 45.248 189.147 45.624V44.424H190.251V51H189.147V49.776C188.931 50.16 188.607 50.48 188.175 50.736C187.751 50.984 187.255 51.108 186.687 51.108C186.103 51.108 185.575 50.964 185.103 50.676C184.631 50.388 184.259 49.984 183.987 49.464C183.715 48.944 183.579 48.352 183.579 47.688ZM189.147 47.7C189.147 47.204 189.047 46.772 188.847 46.404C188.647 46.036 188.375 45.756 188.031 45.564C187.695 45.364 187.323 45.264 186.915 45.264C186.507 45.264 186.135 45.36 185.799 45.552C185.463 45.744 185.195 46.024 184.995 46.392C184.795 46.76 184.695 47.192 184.695 47.688C184.695 48.192 184.795 48.632 184.995 49.008C185.195 49.376 185.463 49.66 185.799 49.86C186.135 50.052 186.507 50.148 186.915 50.148C187.323 50.148 187.695 50.052 188.031 49.86C188.375 49.66 188.647 49.376 188.847 49.008C189.047 48.632 189.147 48.196 189.147 47.7ZM193.188 42.12V51H192.096V42.12H193.188ZM234.926 51.084C234.15 51.084 233.442 50.904 232.802 50.544C232.162 50.176 231.654 49.668 231.278 49.02C230.91 48.364 230.726 47.628 230.726 46.812C230.726 45.996 230.91 45.264 231.278 44.616C231.654 43.96 232.162 43.452 232.802 43.092C233.442 42.724 234.15 42.54 234.926 42.54C235.71 42.54 236.422 42.724 237.062 43.092C237.702 43.452 238.206 43.956 238.574 44.604C238.942 45.252 239.126 45.988 239.126 46.812C239.126 47.636 238.942 48.372 238.574 49.02C238.206 49.668 237.702 50.176 237.062 50.544C236.422 50.904 235.71 51.084 234.926 51.084ZM234.926 50.136C235.51 50.136 236.034 50 236.498 49.728C236.97 49.456 237.338 49.068 237.602 48.564C237.874 48.06 238.01 47.476 238.01 46.812C238.01 46.14 237.874 45.556 237.602 45.06C237.338 44.556 236.974 44.168 236.51 43.896C236.046 43.624 235.518 43.488 234.926 43.488C234.334 43.488 233.806 43.624 233.342 43.896C232.878 44.168 232.51 44.556 232.238 45.06C231.974 45.556 231.842 46.14 231.842 46.812C231.842 47.476 231.974 48.06 232.238 48.564C232.51 49.068 232.878 49.456 233.342 49.728C233.814 50 234.342 50.136 234.926 50.136ZM243.244 45.324H241.864V51H240.772V45.324H239.92V44.424H240.772V43.956C240.772 43.22 240.96 42.684 241.336 42.348C241.72 42.004 242.332 41.832 243.172 41.832V42.744C242.692 42.744 242.352 42.84 242.152 43.032C241.96 43.216 241.864 43.524 241.864 43.956V44.424H243.244V45.324ZM247.193 45.324H245.813V51H244.721V45.324H243.869V44.424H244.721V43.956C244.721 43.22 244.909 42.684 245.285 42.348C245.669 42.004 246.281 41.832 247.121 41.832V42.744C246.641 42.744 246.301 42.84 246.101 43.032C245.909 43.216 245.813 43.524 245.813 43.956V44.424H247.193V45.324ZM255.458 51.084C254.682 51.084 253.974 50.904 253.334 50.544C252.694 50.176 252.186 49.668 251.81 49.02C251.442 48.364 251.258 47.628 251.258 46.812C251.258 45.996 251.442 45.264 251.81 44.616C252.186 43.96 252.694 43.452 253.334 43.092C253.974 42.724 254.682 42.54 255.458 42.54C256.242 42.54 256.954 42.724 257.594 43.092C258.234 43.452 258.738 43.956 259.106 44.604C259.474 45.252 259.658 45.988 259.658 46.812C259.658 47.636 259.474 48.372 259.106 49.02C258.738 49.668 258.234 50.176 257.594 50.544C256.954 50.904 256.242 51.084 255.458 51.084ZM255.458 50.136C256.042 50.136 256.566 50 257.03 49.728C257.502 49.456 257.87 49.068 258.134 48.564C258.406 48.06 258.542 47.476 258.542 46.812C258.542 46.14 258.406 45.556 258.134 45.06C257.87 44.556 257.506 44.168 257.042 43.896C256.578 43.624 256.05 43.488 255.458 43.488C254.866 43.488 254.338 43.624 253.874 43.896C253.41 44.168 253.042 44.556 252.77 45.06C252.506 45.556 252.374 46.14 252.374 46.812C252.374 47.476 252.506 48.06 252.77 48.564C253.042 49.068 253.41 49.456 253.874 49.728C254.346 50 254.874 50.136 255.458 50.136ZM264.303 44.304C265.103 44.304 265.751 44.548 266.247 45.036C266.743 45.516 266.991 46.212 266.991 47.124V51H265.911V47.28C265.911 46.624 265.747 46.124 265.419 45.78C265.091 45.428 264.643 45.252 264.075 45.252C263.499 45.252 263.039 45.432 262.695 45.792C262.359 46.152 262.191 46.676 262.191 47.364V51H261.099V44.424H262.191V45.36C262.407 45.024 262.699 44.764 263.067 44.58C263.443 44.396 263.855 44.304 264.303 44.304ZM271.506 43.32V42.324H273.762V51H272.658V43.32H271.506ZM278.146 51.108C277.642 51.108 277.19 51.024 276.79 50.856C276.39 50.68 276.074 50.44 275.842 50.136C275.61 49.824 275.482 49.468 275.458 49.068H276.586C276.618 49.396 276.77 49.664 277.042 49.872C277.322 50.08 277.686 50.184 278.134 50.184C278.55 50.184 278.878 50.092 279.118 49.908C279.358 49.724 279.478 49.492 279.478 49.212C279.478 48.924 279.35 48.712 279.094 48.576C278.838 48.432 278.442 48.292 277.906 48.156C277.418 48.028 277.018 47.9 276.706 47.772C276.402 47.636 276.138 47.44 275.914 47.184C275.698 46.92 275.59 46.576 275.59 46.152C275.59 45.816 275.69 45.508 275.89 45.228C276.09 44.948 276.374 44.728 276.742 44.568C277.11 44.4 277.53 44.316 278.002 44.316C278.73 44.316 279.318 44.5 279.766 44.868C280.214 45.236 280.454 45.74 280.486 46.38H279.394C279.37 46.036 279.23 45.76 278.974 45.552C278.726 45.344 278.39 45.24 277.966 45.24C277.574 45.24 277.262 45.324 277.03 45.492C276.798 45.66 276.682 45.88 276.682 46.152C276.682 46.368 276.75 46.548 276.886 46.692C277.03 46.828 277.206 46.94 277.414 47.028C277.63 47.108 277.926 47.2 278.302 47.304C278.774 47.432 279.158 47.56 279.454 47.688C279.75 47.808 280.002 47.992 280.21 48.24C280.426 48.488 280.538 48.812 280.546 49.212C280.546 49.572 280.446 49.896 280.246 50.184C280.046 50.472 279.762 50.7 279.394 50.868C279.034 51.028 278.618 51.108 278.146 51.108ZM283.42 45.324V49.2C283.42 49.52 283.488 49.748 283.624 49.884C283.76 50.012 283.996 50.076 284.332 50.076H285.136V51H284.152C283.544 51 283.088 50.86 282.784 50.58C282.48 50.3 282.328 49.84 282.328 49.2V45.324H281.476V44.424H282.328V42.768H283.42V44.424H285.136V45.324H283.42ZM290.75 42.636V51H289.658V42.636H290.75ZM295.815 44.304C296.615 44.304 297.263 44.548 297.759 45.036C298.255 45.516 298.503 46.212 298.503 47.124V51H297.423V47.28C297.423 46.624 297.259 46.124 296.931 45.78C296.603 45.428 296.155 45.252 295.587 45.252C295.011 45.252 294.551 45.432 294.207 45.792C293.871 46.152 293.703 46.676 293.703 47.364V51H292.611V44.424H293.703V45.36C293.919 45.024 294.211 44.764 294.579 44.58C294.955 44.396 295.367 44.304 295.815 44.304ZM302.615 51.108C302.111 51.108 301.659 51.024 301.259 50.856C300.859 50.68 300.543 50.44 300.311 50.136C300.079 49.824 299.951 49.468 299.927 49.068H301.055C301.087 49.396 301.239 49.664 301.511 49.872C301.791 50.08 302.155 50.184 302.603 50.184C303.019 50.184 303.347 50.092 303.587 49.908C303.827 49.724 303.947 49.492 303.947 49.212C303.947 48.924 303.819 48.712 303.563 48.576C303.307 48.432 302.911 48.292 302.375 48.156C301.887 48.028 301.487 47.9 301.175 47.772C300.871 47.636 300.607 47.44 300.383 47.184C300.167 46.92 300.059 46.576 300.059 46.152C300.059 45.816 300.159 45.508 300.359 45.228C300.559 44.948 300.843 44.728 301.211 44.568C301.579 44.4 301.999 44.316 302.471 44.316C303.199 44.316 303.787 44.5 304.235 44.868C304.683 45.236 304.923 45.74 304.955 46.38H303.863C303.839 46.036 303.699 45.76 303.443 45.552C303.195 45.344 302.859 45.24 302.435 45.24C302.043 45.24 301.731 45.324 301.499 45.492C301.267 45.66 301.151 45.88 301.151 46.152C301.151 46.368 301.219 46.548 301.355 46.692C301.499 46.828 301.675 46.94 301.883 47.028C302.099 47.108 302.395 47.2 302.771 47.304C303.243 47.432 303.627 47.56 303.923 47.688C304.219 47.808 304.471 47.992 304.679 48.24C304.895 48.488 305.007 48.812 305.015 49.212C305.015 49.572 304.915 49.896 304.715 50.184C304.515 50.472 304.231 50.7 303.863 50.868C303.503 51.028 303.087 51.108 302.615 51.108ZM307.888 45.324V49.2C307.888 49.52 307.956 49.748 308.092 49.884C308.228 50.012 308.464 50.076 308.8 50.076H309.604V51H308.62C308.012 51 307.556 50.86 307.252 50.58C306.948 50.3 306.796 49.84 306.796 49.2V45.324H305.944V44.424H306.796V42.768H307.888V44.424H309.604V45.324H307.888ZM310.519 47.688C310.519 47.016 310.655 46.428 310.927 45.924C311.199 45.412 311.571 45.016 312.043 44.736C312.523 44.456 313.055 44.316 313.639 44.316C314.215 44.316 314.715 44.44 315.139 44.688C315.563 44.936 315.879 45.248 316.087 45.624V44.424H317.191V51H316.087V49.776C315.871 50.16 315.547 50.48 315.115 50.736C314.691 50.984 314.195 51.108 313.627 51.108C313.043 51.108 312.515 50.964 312.043 50.676C311.571 50.388 311.199 49.984 310.927 49.464C310.655 48.944 310.519 48.352 310.519 47.688ZM316.087 47.7C316.087 47.204 315.987 46.772 315.787 46.404C315.587 46.036 315.315 45.756 314.971 45.564C314.635 45.364 314.263 45.264 313.855 45.264C313.447 45.264 313.075 45.36 312.739 45.552C312.403 45.744 312.135 46.024 311.935 46.392C311.735 46.76 311.635 47.192 311.635 47.688C311.635 48.192 311.735 48.632 311.935 49.008C312.135 49.376 312.403 49.66 312.739 49.86C313.075 50.052 313.447 50.148 313.855 50.148C314.263 50.148 314.635 50.052 314.971 49.86C315.315 49.66 315.587 49.376 315.787 49.008C315.987 48.632 316.087 48.196 316.087 47.7ZM320.129 42.12V51H319.037V42.12H320.129ZM323.082 42.12V51H321.99V42.12H323.082ZM332.851 44.304C333.363 44.304 333.819 44.412 334.219 44.628C334.619 44.836 334.935 45.152 335.167 45.576C335.399 46 335.515 46.516 335.515 47.124V51H334.435V47.28C334.435 46.624 334.271 46.124 333.943 45.78C333.623 45.428 333.187 45.252 332.635 45.252C332.067 45.252 331.615 45.436 331.279 45.804C330.943 46.164 330.775 46.688 330.775 47.376V51H329.695V47.28C329.695 46.624 329.531 46.124 329.203 45.78C328.883 45.428 328.447 45.252 327.895 45.252C327.327 45.252 326.875 45.436 326.539 45.804C326.203 46.164 326.035 46.688 326.035 47.376V51H324.943V44.424H326.035V45.372C326.251 45.028 326.539 44.764 326.899 44.58C327.267 44.396 327.671 44.304 328.111 44.304C328.663 44.304 329.151 44.428 329.575 44.676C329.999 44.924 330.315 45.288 330.523 45.768C330.707 45.304 331.011 44.944 331.435 44.688C331.859 44.432 332.331 44.304 332.851 44.304ZM343.306 47.46C343.306 47.668 343.294 47.888 343.27 48.12H338.014C338.054 48.768 338.274 49.276 338.674 49.644C339.082 50.004 339.574 50.184 340.15 50.184C340.622 50.184 341.014 50.076 341.326 49.86C341.646 49.636 341.87 49.34 341.998 48.972H343.174C342.998 49.604 342.646 50.12 342.118 50.52C341.59 50.912 340.934 51.108 340.15 51.108C339.526 51.108 338.966 50.968 338.47 50.688C337.982 50.408 337.598 50.012 337.318 49.5C337.038 48.98 336.898 48.38 336.898 47.7C336.898 47.02 337.034 46.424 337.306 45.912C337.578 45.4 337.958 45.008 338.446 44.736C338.942 44.456 339.51 44.316 340.15 44.316C340.774 44.316 341.326 44.452 341.806 44.724C342.286 44.996 342.654 45.372 342.91 45.852C343.174 46.324 343.306 46.86 343.306 47.46ZM342.178 47.232C342.178 46.816 342.086 46.46 341.902 46.164C341.718 45.86 341.466 45.632 341.146 45.48C340.834 45.32 340.486 45.24 340.102 45.24C339.55 45.24 339.078 45.416 338.686 45.768C338.302 46.12 338.082 46.608 338.026 47.232H342.178ZM347.952 44.304C348.752 44.304 349.4 44.548 349.896 45.036C350.392 45.516 350.64 46.212 350.64 47.124V51H349.56V47.28C349.56 46.624 349.396 46.124 349.068 45.78C348.74 45.428 348.292 45.252 347.724 45.252C347.148 45.252 346.688 45.432 346.344 45.792C346.008 46.152 345.84 46.676 345.84 47.364V51H344.748V44.424H345.84V45.36C346.056 45.024 346.348 44.764 346.716 44.58C347.092 44.396 347.504 44.304 347.952 44.304ZM353.756 45.324V49.2C353.756 49.52 353.824 49.748 353.96 49.884C354.096 50.012 354.332 50.076 354.668 50.076H355.472V51H354.488C353.88 51 353.424 50.86 353.12 50.58C352.816 50.3 352.664 49.84 352.664 49.2V45.324H351.812V44.424H352.664V42.768H353.756V44.424H355.472V45.324H353.756Z" fill="#707477"/>
<path d="M224.472 18.4V17.155H227.292V28H225.912V18.4H224.472ZM229.637 22.465C229.637 20.745 229.917 19.405 230.477 18.445C231.037 17.475 232.017 16.99 233.417 16.99C234.807 16.99 235.782 17.475 236.342 18.445C236.902 19.405 237.182 20.745 237.182 22.465C237.182 24.215 236.902 25.575 236.342 26.545C235.782 27.515 234.807 28 233.417 28C232.017 28 231.037 27.515 230.477 26.545C229.917 25.575 229.637 24.215 229.637 22.465ZM235.832 22.465C235.832 21.595 235.772 20.86 235.652 20.26C235.542 19.65 235.307 19.16 234.947 18.79C234.597 18.42 234.087 18.235 233.417 18.235C232.737 18.235 232.217 18.42 231.857 18.79C231.507 19.16 231.272 19.65 231.152 20.26C231.042 20.86 230.987 21.595 230.987 22.465C230.987 23.365 231.042 24.12 231.152 24.73C231.272 25.34 231.507 25.83 231.857 26.2C232.217 26.57 232.737 26.755 233.417 26.755C234.087 26.755 234.597 26.57 234.947 26.2C235.307 25.83 235.542 25.34 235.652 24.73C235.772 24.12 235.832 23.365 235.832 22.465ZM251.08 23.095H247.885V26.335H246.61V23.095H243.43V21.94H246.61V18.685H247.885V21.94H251.08V23.095ZM256.933 18.4V17.155H259.753V28H258.373V18.4H256.933ZM205.17 41.34H199.905V44.76C200.135 44.44 200.475 44.18 200.925 43.98C201.375 43.77 201.86 43.665 202.38 43.665C203.21 43.665 203.885 43.84 204.405 44.19C204.925 44.53 205.295 44.975 205.515 45.525C205.745 46.065 205.86 46.64 205.86 47.25C205.86 47.97 205.725 48.615 205.455 49.185C205.185 49.755 204.77 50.205 204.21 50.535C203.66 50.865 202.975 51.03 202.155 51.03C201.105 51.03 200.255 50.76 199.605 50.22C198.955 49.68 198.56 48.96 198.42 48.06H199.755C199.885 48.63 200.16 49.075 200.58 49.395C201 49.715 201.53 49.875 202.17 49.875C202.96 49.875 203.555 49.64 203.955 49.17C204.355 48.69 204.555 48.06 204.555 47.28C204.555 46.5 204.355 45.9 203.955 45.48C203.555 45.05 202.965 44.835 202.185 44.835C201.655 44.835 201.19 44.965 200.79 45.225C200.4 45.475 200.115 45.82 199.935 46.26H198.645V40.14H205.17V41.34ZM207.674 45.465C207.674 43.745 207.954 42.405 208.514 41.445C209.074 40.475 210.054 39.99 211.454 39.99C212.844 39.99 213.819 40.475 214.379 41.445C214.939 42.405 215.219 43.745 215.219 45.465C215.219 47.215 214.939 48.575 214.379 49.545C213.819 50.515 212.844 51 211.454 51C210.054 51 209.074 50.515 208.514 49.545C207.954 48.575 207.674 47.215 207.674 45.465ZM213.869 45.465C213.869 44.595 213.809 43.86 213.689 43.26C213.579 42.65 213.344 42.16 212.984 41.79C212.634 41.42 212.124 41.235 211.454 41.235C210.774 41.235 210.254 41.42 209.894 41.79C209.544 42.16 209.309 42.65 209.189 43.26C209.079 43.86 209.024 44.595 209.024 45.465C209.024 46.365 209.079 47.12 209.189 47.73C209.309 48.34 209.544 48.83 209.894 49.2C210.254 49.57 210.774 49.755 211.454 49.755C212.124 49.755 212.634 49.57 212.984 49.2C213.344 48.83 213.579 48.34 213.689 47.73C213.809 47.12 213.869 46.365 213.869 45.465ZM216.793 42.6C216.793 41.92 216.998 41.38 217.408 40.98C217.818 40.57 218.343 40.365 218.983 40.365C219.623 40.365 220.148 40.57 220.558 40.98C220.968 41.38 221.173 41.92 221.173 42.6C221.173 43.29 220.968 43.84 220.558 44.25C220.148 44.65 219.623 44.85 218.983 44.85C218.343 44.85 217.818 44.65 217.408 44.25C216.998 43.84 216.793 43.29 216.793 42.6ZM225.553 40.53L219.478 51H218.128L224.203 40.53H225.553ZM218.983 41.205C218.643 41.205 218.373 41.325 218.173 41.565C217.983 41.795 217.888 42.14 217.888 42.6C217.888 43.06 217.983 43.41 218.173 43.65C218.373 43.89 218.643 44.01 218.983 44.01C219.323 44.01 219.593 43.89 219.793 43.65C219.993 43.4 220.093 43.05 220.093 42.6C220.093 42.14 219.993 41.795 219.793 41.565C219.593 41.325 219.323 41.205 218.983 41.205ZM222.538 48.93C222.538 48.24 222.743 47.695 223.153 47.295C223.563 46.885 224.088 46.68 224.728 46.68C225.368 46.68 225.888 46.885 226.288 47.295C226.698 47.695 226.903 48.24 226.903 48.93C226.903 49.61 226.698 50.155 226.288 50.565C225.888 50.975 225.368 51.18 224.728 51.18C224.088 51.18 223.563 50.98 223.153 50.58C222.743 50.17 222.538 49.62 222.538 48.93ZM224.713 47.535C224.373 47.535 224.103 47.655 223.903 47.895C223.703 48.125 223.603 48.47 223.603 48.93C223.603 49.38 223.703 49.725 223.903 49.965C224.103 50.195 224.373 50.31 224.713 50.31C225.053 50.31 225.323 50.195 225.523 49.965C225.723 49.725 225.823 49.38 225.823 48.93C225.823 48.47 225.723 48.125 225.523 47.895C225.323 47.655 225.053 47.535 224.713 47.535Z" fill="#E88F9F"/>
<g filter="url(#filter0_d_3820_5828)">
<path d="M98.4333 8L129 60H-2V8H98.4333Z" fill="#E88F9F"/>
</g>
<path d="M13.8143 38.084C13.2623 38.084 12.7663 37.988 12.3263 37.796C11.8943 37.596 11.5543 37.324 11.3063 36.98C11.0583 36.628 10.9303 36.224 10.9223 35.768H12.0863C12.1263 36.16 12.2863 36.492 12.5663 36.764C12.8543 37.028 13.2703 37.16 13.8143 37.16C14.3343 37.16 14.7423 37.032 15.0383 36.776C15.3423 36.512 15.4943 36.176 15.4943 35.768C15.4943 35.448 15.4063 35.188 15.2303 34.988C15.0543 34.788 14.8343 34.636 14.5703 34.532C14.3063 34.428 13.9503 34.316 13.5023 34.196C12.9503 34.052 12.5063 33.908 12.1703 33.764C11.8423 33.62 11.5583 33.396 11.3183 33.092C11.0863 32.78 10.9703 32.364 10.9703 31.844C10.9703 31.388 11.0863 30.984 11.3183 30.632C11.5503 30.28 11.8743 30.008 12.2903 29.816C12.7143 29.624 13.1983 29.528 13.7423 29.528C14.5263 29.528 15.1663 29.724 15.6623 30.116C16.1663 30.508 16.4503 31.028 16.5143 31.676H15.3143C15.2743 31.356 15.1063 31.076 14.8103 30.836C14.5143 30.588 14.1223 30.464 13.6343 30.464C13.1783 30.464 12.8063 30.584 12.5183 30.824C12.2303 31.056 12.0863 31.384 12.0863 31.808C12.0863 32.112 12.1703 32.36 12.3383 32.552C12.5143 32.744 12.7263 32.892 12.9743 32.996C13.2303 33.092 13.5863 33.204 14.0423 33.332C14.5943 33.484 15.0383 33.636 15.3743 33.788C15.7103 33.932 15.9983 34.16 16.2383 34.472C16.4783 34.776 16.5983 35.192 16.5983 35.72C16.5983 36.128 16.4903 36.512 16.2743 36.872C16.0583 37.232 15.7383 37.524 15.3143 37.748C14.8903 37.972 14.3903 38.084 13.8143 38.084ZM24.0373 31.424V38H22.9453V37.028C22.7373 37.364 22.4453 37.628 22.0693 37.82C21.7013 38.004 21.2933 38.096 20.8453 38.096C20.3333 38.096 19.8733 37.992 19.4653 37.784C19.0573 37.568 18.7333 37.248 18.4933 36.824C18.2613 36.4 18.1453 35.884 18.1453 35.276V31.424H19.2253V35.132C19.2253 35.78 19.3893 36.28 19.7173 36.632C20.0453 36.976 20.4933 37.148 21.0613 37.148C21.6453 37.148 22.1053 36.968 22.4413 36.608C22.7773 36.248 22.9453 35.724 22.9453 35.036V31.424H24.0373ZM26.973 32.648C27.197 32.256 27.525 31.936 27.957 31.688C28.389 31.44 28.881 31.316 29.433 31.316C30.025 31.316 30.557 31.456 31.029 31.736C31.501 32.016 31.873 32.412 32.145 32.924C32.417 33.428 32.553 34.016 32.553 34.688C32.553 35.352 32.417 35.944 32.145 36.464C31.873 36.984 31.497 37.388 31.017 37.676C30.545 37.964 30.017 38.108 29.433 38.108C28.865 38.108 28.365 37.984 27.933 37.736C27.509 37.488 27.189 37.172 26.973 36.788V38H25.881V29.12H26.973V32.648ZM31.437 34.688C31.437 34.192 31.337 33.76 31.137 33.392C30.937 33.024 30.665 32.744 30.321 32.552C29.985 32.36 29.613 32.264 29.205 32.264C28.805 32.264 28.433 32.364 28.089 32.564C27.753 32.756 27.481 33.04 27.273 33.416C27.073 33.784 26.973 34.212 26.973 34.7C26.973 35.196 27.073 35.632 27.273 36.008C27.481 36.376 27.753 36.66 28.089 36.86C28.433 37.052 28.805 37.148 29.205 37.148C29.613 37.148 29.985 37.052 30.321 36.86C30.665 36.66 30.937 36.376 31.137 36.008C31.337 35.632 31.437 35.192 31.437 34.688ZM36.3184 38.108C35.8144 38.108 35.3624 38.024 34.9624 37.856C34.5624 37.68 34.2464 37.44 34.0144 37.136C33.7824 36.824 33.6544 36.468 33.6304 36.068H34.7584C34.7904 36.396 34.9424 36.664 35.2144 36.872C35.4944 37.08 35.8584 37.184 36.3064 37.184C36.7224 37.184 37.0504 37.092 37.2904 36.908C37.5304 36.724 37.6504 36.492 37.6504 36.212C37.6504 35.924 37.5224 35.712 37.2664 35.576C37.0104 35.432 36.6144 35.292 36.0784 35.156C35.5904 35.028 35.1904 34.9 34.8784 34.772C34.5744 34.636 34.3104 34.44 34.0864 34.184C33.8704 33.92 33.7624 33.576 33.7624 33.152C33.7624 32.816 33.8624 32.508 34.0624 32.228C34.2624 31.948 34.5464 31.728 34.9144 31.568C35.2824 31.4 35.7024 31.316 36.1744 31.316C36.9024 31.316 37.4904 31.5 37.9384 31.868C38.3864 32.236 38.6264 32.74 38.6584 33.38H37.5664C37.5424 33.036 37.4024 32.76 37.1464 32.552C36.8984 32.344 36.5624 32.24 36.1384 32.24C35.7464 32.24 35.4344 32.324 35.2024 32.492C34.9704 32.66 34.8544 32.88 34.8544 33.152C34.8544 33.368 34.9224 33.548 35.0584 33.692C35.2024 33.828 35.3784 33.94 35.5864 34.028C35.8024 34.108 36.0984 34.2 36.4744 34.304C36.9464 34.432 37.3304 34.56 37.6264 34.688C37.9224 34.808 38.1744 34.992 38.3824 35.24C38.5984 35.488 38.7104 35.812 38.7184 36.212C38.7184 36.572 38.6184 36.896 38.4184 37.184C38.2184 37.472 37.9344 37.7 37.5664 37.868C37.2064 38.028 36.7904 38.108 36.3184 38.108ZM39.8519 34.7C39.8519 34.02 39.9879 33.428 40.2599 32.924C40.5319 32.412 40.9079 32.016 41.3879 31.736C41.8759 31.456 42.4319 31.316 43.0559 31.316C43.8639 31.316 44.5279 31.512 45.0479 31.904C45.5759 32.296 45.9239 32.84 46.0919 33.536H44.9159C44.8039 33.136 44.5839 32.82 44.2559 32.588C43.9359 32.356 43.5359 32.24 43.0559 32.24C42.4319 32.24 41.9279 32.456 41.5439 32.888C41.1599 33.312 40.9679 33.916 40.9679 34.7C40.9679 35.492 41.1599 36.104 41.5439 36.536C41.9279 36.968 42.4319 37.184 43.0559 37.184C43.5359 37.184 43.9359 37.072 44.2559 36.848C44.5759 36.624 44.7959 36.304 44.9159 35.888H46.0919C45.9159 36.56 45.5639 37.1 45.0359 37.508C44.5079 37.908 43.8479 38.108 43.0559 38.108C42.4319 38.108 41.8759 37.968 41.3879 37.688C40.9079 37.408 40.5319 37.012 40.2599 36.5C39.9879 35.988 39.8519 35.388 39.8519 34.7ZM48.641 32.492C48.833 32.116 49.105 31.824 49.457 31.616C49.817 31.408 50.253 31.304 50.765 31.304V32.432H50.477C49.253 32.432 48.641 33.096 48.641 34.424V38H47.549V31.424H48.641V32.492ZM52.5896 30.356C52.3816 30.356 52.2056 30.284 52.0616 30.14C51.9176 29.996 51.8456 29.82 51.8456 29.612C51.8456 29.404 51.9176 29.228 52.0616 29.084C52.2056 28.94 52.3816 28.868 52.5896 28.868C52.7896 28.868 52.9576 28.94 53.0936 29.084C53.2376 29.228 53.3096 29.404 53.3096 29.612C53.3096 29.82 53.2376 29.996 53.0936 30.14C52.9576 30.284 52.7896 30.356 52.5896 30.356ZM53.1176 31.424V38H52.0256V31.424H53.1176ZM56.0707 32.648C56.2947 32.256 56.6227 31.936 57.0547 31.688C57.4867 31.44 57.9787 31.316 58.5307 31.316C59.1227 31.316 59.6547 31.456 60.1267 31.736C60.5987 32.016 60.9707 32.412 61.2427 32.924C61.5147 33.428 61.6507 34.016 61.6507 34.688C61.6507 35.352 61.5147 35.944 61.2427 36.464C60.9707 36.984 60.5947 37.388 60.1147 37.676C59.6427 37.964 59.1147 38.108 58.5307 38.108C57.9627 38.108 57.4627 37.984 57.0307 37.736C56.6067 37.488 56.2867 37.172 56.0707 36.788V38H54.9787V29.12H56.0707V32.648ZM60.5347 34.688C60.5347 34.192 60.4347 33.76 60.2347 33.392C60.0347 33.024 59.7627 32.744 59.4187 32.552C59.0827 32.36 58.7107 32.264 58.3027 32.264C57.9027 32.264 57.5307 32.364 57.1867 32.564C56.8507 32.756 56.5787 33.04 56.3707 33.416C56.1707 33.784 56.0707 34.212 56.0707 34.7C56.0707 35.196 56.1707 35.632 56.3707 36.008C56.5787 36.376 56.8507 36.66 57.1867 36.86C57.5307 37.052 57.9027 37.148 58.3027 37.148C58.7107 37.148 59.0827 37.052 59.4187 36.86C59.7627 36.66 60.0347 36.376 60.2347 36.008C60.4347 35.632 60.5347 35.192 60.5347 34.688ZM69.0881 34.46C69.0881 34.668 69.0761 34.888 69.0521 35.12H63.7961C63.8361 35.768 64.0561 36.276 64.4561 36.644C64.8641 37.004 65.3561 37.184 65.9321 37.184C66.4041 37.184 66.7961 37.076 67.1081 36.86C67.4281 36.636 67.6521 36.34 67.7801 35.972H68.9561C68.7801 36.604 68.4281 37.12 67.9001 37.52C67.3721 37.912 66.7161 38.108 65.9321 38.108C65.3081 38.108 64.7481 37.968 64.2521 37.688C63.7641 37.408 63.3801 37.012 63.1001 36.5C62.8201 35.98 62.6801 35.38 62.6801 34.7C62.6801 34.02 62.8161 33.424 63.0881 32.912C63.3601 32.4 63.7401 32.008 64.2281 31.736C64.7241 31.456 65.2921 31.316 65.9321 31.316C66.5561 31.316 67.1081 31.452 67.5881 31.724C68.0681 31.996 68.4361 32.372 68.6921 32.852C68.9561 33.324 69.0881 33.86 69.0881 34.46ZM67.9601 34.232C67.9601 33.816 67.8681 33.46 67.6841 33.164C67.5001 32.86 67.2481 32.632 66.9281 32.48C66.6161 32.32 66.2681 32.24 65.8841 32.24C65.3321 32.24 64.8601 32.416 64.4681 32.768C64.0841 33.12 63.8641 33.608 63.8081 34.232H67.9601ZM80.3047 38H79.2127L74.8207 31.34V38H73.7287V29.624H74.8207L79.2127 36.272V29.624H80.3047V38ZM85.0342 38.108C84.4182 38.108 83.8582 37.968 83.3542 37.688C82.8582 37.408 82.4662 37.012 82.1782 36.5C81.8982 35.98 81.7582 35.38 81.7582 34.7C81.7582 34.028 81.9022 33.436 82.1902 32.924C82.4862 32.404 82.8862 32.008 83.3902 31.736C83.8942 31.456 84.4582 31.316 85.0822 31.316C85.7062 31.316 86.2702 31.456 86.7742 31.736C87.2782 32.008 87.6742 32.4 87.9622 32.912C88.2582 33.424 88.4062 34.02 88.4062 34.7C88.4062 35.38 88.2542 35.98 87.9502 36.5C87.6542 37.012 87.2502 37.408 86.7382 37.688C86.2262 37.968 85.6582 38.108 85.0342 38.108ZM85.0342 37.148C85.4262 37.148 85.7942 37.056 86.1382 36.872C86.4822 36.688 86.7582 36.412 86.9662 36.044C87.1822 35.676 87.2902 35.228 87.2902 34.7C87.2902 34.172 87.1862 33.724 86.9782 33.356C86.7702 32.988 86.4982 32.716 86.1622 32.54C85.8262 32.356 85.4622 32.264 85.0702 32.264C84.6702 32.264 84.3022 32.356 83.9662 32.54C83.6382 32.716 83.3742 32.988 83.1742 33.356C82.9742 33.724 82.8742 34.172 82.8742 34.7C82.8742 35.236 82.9702 35.688 83.1622 36.056C83.3622 36.424 83.6262 36.7 83.9542 36.884C84.2822 37.06 84.6422 37.148 85.0342 37.148ZM98.602 31.424L96.55 38H95.422L93.838 32.78L92.254 38H91.126L89.062 31.424H90.178L91.69 36.944L93.322 31.424H94.438L96.034 36.956L97.522 31.424H98.602Z" fill="white"/>
<defs>
<filter id="filter0_d_3820_5828" x="-8" y="0" width="147" height="68" filterUnits="userSpaceOnUse" color-interpolation-filters="sRGB">
<feFlood flood-opacity="0" result="BackgroundImageFix"/>
<feColorMatrix in="SourceAlpha" type="matrix" values="0 0 0 0 0 0 0 0 0 0 0 0 0 0 0 0 0 0 127 0" result="hardAlpha"/>
<feOffset dx="2"/>
<feGaussianBlur stdDeviation="4"/>
<feComposite in2="hardAlpha" operator="out"/>
<feColorMatrix type="matrix" values="0 0 0 0 0.0862745 0 0 0 0 0.0862745 0 0 0 0 0.0862745 0 0 0 0.1 0"/>
<feBlend mode="normal" in2="BackgroundImageFix" result="effect1_dropShadow_3820_5828"/>
<feBlend mode="normal" in="SourceGraphic" in2="effect1_dropShadow_3820_5828" result="shape"/>
</filter>
</defs>
</svg>
