<svg width="23" height="20" viewBox="0 0 28 28" fill="none" xmlns="http://www.w3.org/2000/svg">
<path d="M22.7502 14.5832C22.7502 12.9732 24.0568 11.6665 25.6668 11.6665V10.4998C25.6668 5.83317 24.5002 4.6665 19.8335 4.6665H8.16683C3.50016 4.6665 2.3335 5.83317 2.3335 10.4998V11.0832C3.9435 11.0832 5.25016 12.3898 5.25016 13.9998C5.25016 15.6098 3.9435 16.9165 2.3335 16.9165V17.4998C2.3335 22.1665 3.50016 23.3332 8.16683 23.3332H19.8335C24.5002 23.3332 25.6668 22.1665 25.6668 17.4998C24.0568 17.4998 22.7502 16.1932 22.7502 14.5832Z" stroke="#1CAE56" stroke-width="2" stroke-linecap="round" stroke-linejoin="round"/>
<path d="M10.5 17.2085L17.5 10.2085" stroke="#1CAE56" stroke-width="2" stroke-linecap="round" stroke-linejoin="round"/>
<path d="M17.4934 17.2083H17.5039" stroke="#1CAE56" stroke-width="2" stroke-linecap="round" stroke-linejoin="round"/>
<path d="M10.4934 10.7918H10.5039" stroke="#1CAE56" stroke-width="2.4" stroke-linecap="round" stroke-linejoin="round"/>
</svg>
